<svg width="141" height="124" viewBox="0 0 141 124" fill="none" xmlns="http://www.w3.org/2000/svg">
<path d="M39.5282 32.8222H80.4192C82.0304 32.8222 83.3226 31.5153 83.3226 29.9188V2.90345C83.3226 1.30698 82.0305 0 80.4192 0L39.5282 0.00105307C37.9318 0.00105307 36.6248 1.30793 36.6248 2.9045V29.9198C36.6248 31.5015 37.9317 32.8233 39.5282 32.8233V32.8222ZM38.0771 2.90345C38.0771 2.10523 38.73 1.45232 39.5282 1.45232H80.4192C81.2322 1.45232 81.8703 2.10523 81.8703 2.90345V29.9188C81.8703 30.717 81.2311 31.3699 80.4192 31.3699L39.5282 31.3709C38.73 31.3709 38.0771 30.718 38.0771 29.9198V2.90345Z" fill="black"/>
<path d="M56.2642 13.9647C58.0934 13.9647 59.5594 12.4988 59.5594 10.6844C59.5594 8.88468 58.0935 7.40405 56.2642 7.40405C54.4645 7.40405 52.9976 8.88468 52.9976 10.6844C52.9976 12.4988 54.4635 13.9647 56.2642 13.9647Z" fill="black"/>
<path d="M54.0725 90.3064H5.61689C4.31001 90.3064 3.25064 91.3658 3.25064 92.6726V105.621C3.25064 106.928 4.31004 107.987 5.61689 107.987H54.0725C55.3793 107.987 56.4387 106.928 56.4387 105.621V92.6726C56.4387 91.3658 55.3793 90.3064 54.0725 90.3064ZM14.8502 106.535H5.61796C5.11039 106.535 4.7039 106.129 4.7039 105.621V92.6727C4.7039 92.1651 5.11039 91.7586 5.61796 91.7586H14.8502C14.7344 92.0493 14.6765 92.3536 14.6765 92.6727V105.636C14.6765 105.969 14.7344 106.259 14.8502 106.535V106.535Z" fill="black"/>
<path d="M140.78 62.9729C140.867 62.0588 140.576 61.1584 139.967 60.4908C139.357 59.8231 138.486 59.4461 137.572 59.4461L124.42 59.4314C125.233 57.936 125.582 56.1362 125.407 54.1912C125.146 51.3025 123.766 48.7479 121.909 47.7022C121.023 47.1946 120.385 44.7842 119.775 42.4474C118.817 38.7605 117.728 34.5798 114.869 32.9825C113.621 32.2854 112.126 32.1695 110.455 32.6339C109.846 32.4602 108.132 32.0968 106.594 32.8951C105.52 33.4469 104.779 34.4189 104.358 35.7689C103.879 36.2185 102.631 37.5549 102.529 39.3547C102.456 40.6468 102.965 41.8662 103.98 42.8962C103.98 42.911 104.01 42.9394 104.023 42.9973C104.066 44.1736 104.227 45.451 104.56 46.6114C104.066 46.365 103.486 46.2628 102.774 46.3208C101.788 46.4218 101.323 46.9452 101.105 47.3654C100.365 48.8313 101.584 51.2998 102.121 52.2716C100.829 53.3026 99.7699 54.6231 99.015 56.2197C98.8844 56.4956 98.9423 56.7863 99.1161 56.9895L98.143 59.5874C96.5023 60.0371 95.2975 61.4746 95.1964 63.1732C95.1385 64.0009 95.2112 64.8571 95.4292 65.7132L95.6029 66.4241L95.3123 67.2075H86.2105C85.804 67.2075 85.4849 67.5266 85.4849 67.9331C85.4849 68.3396 85.804 68.6587 86.2105 68.6587H87.4584L87.9228 71.0681L86.8487 71.1987C81.5507 71.9095 77.6164 76.323 77.5005 81.7083L77.1814 99.5199C77.1666 100.376 77.4857 101.189 78.0375 101.813C76.8033 107.533 75.9324 112.672 75.7439 113.862C75.7144 113.977 75.7439 114.108 75.7871 114.225C75.7576 114.268 75.1194 115.284 74.7562 115.763C74.6835 115.763 74.6108 115.734 74.5529 115.749C74.2043 115.792 73.9137 115.995 73.7547 116.256C72.71 117.795 71.0545 118.593 68.6735 118.768C67.8311 118.826 67.7152 119.378 67.6868 119.436L64.5655 111.248H65.4943C68.6008 111.248 71.1262 108.722 71.1262 105.63V92.6663C71.1262 89.5599 68.5999 87.0481 65.4943 87.0481L45.2626 87.0555V81.6986H59.7497C61.404 81.6986 62.7542 80.3917 62.7542 78.7951L62.7553 53.1159C62.7553 51.5194 61.4052 50.2124 59.7507 50.2124H13.2982C11.7017 50.2124 10.3947 51.5045 10.3947 53.1159V78.7951C10.3947 80.3916 11.7016 81.6986 13.2982 81.6986H26.8714V87.0555H5.61819C2.5263 87.0555 0 89.5671 0 92.6737V105.637C0 108.729 2.52633 111.255 5.61819 111.255L6.388 111.254L2.91814 120.341C2.46847 121.488 2.91814 122.765 3.99229 123.404C4.35561 123.608 4.74735 123.68 5.12434 123.68C6.11108 123.68 7.04094 123.129 7.40318 122.548C7.88232 121.765 13.7468 112.169 13.8628 111.85C13.9207 111.676 13.9786 111.473 14.0081 111.255H18.3048L14.8349 120.342C14.3852 121.489 14.8349 122.766 15.909 123.405C16.2724 123.594 16.6494 123.681 17.0263 123.681C18.0131 123.681 18.9566 123.129 19.3347 122.549C20.2056 121.112 25.6638 112.141 25.7943 111.807C25.8522 111.647 25.8954 111.458 25.9248 111.255H45.0286C45.0581 111.473 45.116 111.661 45.1739 111.807C45.2898 112.17 51.1544 121.765 51.6335 122.549C51.9968 123.144 52.9404 123.667 53.9271 123.667C54.3188 123.667 54.6969 123.594 55.0591 123.391C56.1185 122.766 56.5692 121.489 56.1185 120.342L52.6487 111.255H56.9454C56.9748 111.473 57.0328 111.661 57.0907 111.807C57.2065 112.17 63.0712 121.765 63.5503 122.549C63.9136 123.144 64.8571 123.667 65.8438 123.667C66.2356 123.667 66.6136 123.594 66.9759 123.391C67.6288 123.014 68.05 122.374 68.1659 121.677C68.7177 122.316 69.676 122.882 71.461 122.882C71.679 122.882 75.0468 122.621 76.2516 122.505C76.7887 122.723 77.471 122.882 78.3567 122.882C78.5894 122.882 79.3434 122.824 79.3434 122.824C86.34 122.272 87.7343 122.084 87.9659 121.111C88.126 120.4 87.7627 117.38 87.1529 116.567C87.1235 116.524 87.0803 116.509 87.0518 116.466C87.1972 115.826 87.6616 114.375 87.6616 114.361C90.2595 110.165 92.292 106.406 93.802 103.023H104.907L109.842 119.934C110.06 120.689 110.771 121.197 111.526 121.197C111.642 121.197 111.744 121.197 111.86 121.167C112.804 120.994 113.443 120.079 113.268 119.092L110.074 103.022H128.292L133.228 119.933C133.446 120.703 134.142 121.211 134.912 121.196C135.304 121.196 136.001 121.022 136.378 120.441C136.624 120.034 136.741 119.555 136.639 119.091L133.489 103.021H134.476C136.378 103.021 137.901 101.482 137.901 99.5953C137.901 99.5953 137.48 93.7739 138.119 90.9149L140.78 62.9729ZM13.2974 80.2475C12.4992 80.2475 11.8463 79.5946 11.8463 78.7963V53.116C11.8463 52.3031 12.4992 51.6649 13.2974 51.6649H53.9862H54.0157H54.0589C54.8423 51.6796 55.4668 52.3178 55.4668 53.116V78.7953C55.4668 79.5935 54.8139 80.2464 54.0157 80.2464L13.2974 80.2475ZM39.0061 81.6986V87.0556H28.3226V81.6986H39.0061ZM54.0735 109.803H5.61797C3.32438 109.803 1.45204 107.931 1.45204 105.637V92.6738C1.45204 90.3802 3.3244 88.5078 5.61797 88.5078H54.1463C56.4104 88.5373 58.2543 90.3949 58.2543 92.6738V105.622C58.2543 107.945 56.3819 109.803 54.0735 109.803ZM57.8046 109.803C58.9662 108.772 59.7065 107.291 59.7065 105.622V92.6738C59.7065 91.0046 58.9662 89.5387 57.8194 88.5078H65.4983C67.8066 88.5078 69.679 90.3802 69.679 92.6738V105.637C69.679 107.931 67.8067 109.803 65.4983 109.803H57.8046ZM123.403 60.8838H125.232C123.694 61.8568 124.304 64.8761 124.522 65.7321L125.305 68.7228C125.378 69.0272 125.378 70.0434 124.362 70.0729L119.978 70.6679C120.166 69.1293 121.298 63.5691 121.473 62.6549C121.864 62.3064 123.185 61.1448 123.403 60.8837L123.403 60.8838ZM114.127 50.0836C115.971 50.0404 117.64 50.4027 119.077 51.2157C120.412 51.9991 120.834 53.8431 120.804 56.0936C120.703 56.0788 120.616 56.0504 120.514 56.0788C118.147 56.5285 116.391 56.0209 114.998 54.4529C114.824 54.2791 114.576 54.1917 114.345 54.2202C114.112 54.2496 113.909 54.4087 113.793 54.6266L110.599 61.2747C110.294 60.5638 110.032 60.1131 109.698 59.5329C109.103 58.4882 108.188 56.9055 106.215 52.2025C106.316 52.0425 106.433 51.854 106.549 51.636C106.679 52.0425 106.897 52.5795 107.391 53.0008C108.508 53.9738 110.251 53.9443 110.323 53.9443C112.907 53.8443 113.88 51.6665 114.126 50.0838L114.127 50.0836ZM98.3769 72.352V68.6652H103.037L102.384 73.9779C101.381 73.107 99.9733 72.4973 98.377 72.352L98.3769 72.352ZM101.527 81.0179L101.512 81.2064C101.396 81.2211 101.266 81.2359 101.149 81.2496C101.28 81.178 101.396 81.0906 101.527 81.0179H101.527ZM102.427 65.5007C102.035 63.9475 102.05 61.7697 102.746 60.8261C102.906 60.5934 103.123 60.4923 103.356 60.4344C103.82 62.7711 104.43 65.1953 105.214 67.2131H102.776L102.427 65.5007ZM103.167 79.4939C103.661 78.8115 103.966 78.028 103.966 77.1856C103.966 76.6633 103.835 76.1694 103.647 75.705L104.489 68.6642H105.869C105.984 68.8969 106.101 69.1286 106.232 69.3465L104.04 80.8293C103.677 80.8725 103.343 80.9304 102.996 80.9746L103.167 79.4939ZM103.719 52.9005L104.924 52.8573C106.899 57.5751 107.827 59.1864 108.452 60.2605C108.959 61.1314 109.265 61.6537 109.831 63.3375C109.919 63.6134 110.18 63.8167 110.471 63.8314C110.775 63.8609 111.037 63.6861 111.168 63.4249L114.666 56.1523C115.987 57.2559 117.584 57.7782 119.457 57.6624C116.917 63.0911 112.46 70.4805 109.585 70.4805H109.44C106.666 70.2182 104.474 60.2887 103.72 52.9004L103.719 52.9005ZM112.719 49.6488C112.631 50.4322 112.211 52.4215 110.265 52.4794C108.639 52.5521 108.087 51.7391 107.928 51.202L109.148 50.5491C109.322 50.4617 109.409 50.288 109.467 50.1131C109.917 49.9826 110.353 49.7646 110.744 49.4308C111.166 49.0674 111.514 48.6178 111.819 48.1102C112.051 48.7484 112.357 49.2718 112.719 49.6488H112.719ZM105.49 41.0263C106.694 42.1583 108.814 43.5231 111.775 43.3051C111.572 44.8437 110.904 47.1804 109.801 48.3273C108.248 49.9532 106.84 47.9787 106.738 47.8629C105.549 46.3538 105.389 43.1893 105.49 41.0264L105.49 41.0263ZM102.413 48.0229C102.442 47.965 102.514 47.8049 102.92 47.7765C103.515 47.7038 103.936 47.8196 104.168 48.0671C104.531 48.4736 104.502 49.2139 104.459 49.4751C104.386 49.8521 104.619 50.2154 104.981 50.3028C105.214 50.3607 105.445 50.3028 105.62 50.1575C105.446 50.5934 105.214 51.0284 104.981 51.4054L103.34 51.4633C102.718 50.3312 102.094 48.662 102.413 48.0228V48.0229ZM102.369 53.9748C102.515 55.1364 102.703 56.6601 102.979 58.3292L100.584 56.3989C101.077 55.4701 101.672 54.6571 102.369 53.9747V53.9748ZM100.294 58.0103L102.08 59.4614C101.891 59.6067 101.731 59.7657 101.572 59.969C100.528 61.377 100.556 64.019 101.02 65.8187L101.296 67.212H96.8692L100.294 58.0103ZM97.3758 61.6823L96.6502 63.6273C96.4754 63.0323 96.9546 62.1035 97.3758 61.6823ZM96.9251 68.68V72.3669C95.3286 72.5122 93.9205 73.1072 92.9182 74.0075L92.2653 68.68L96.9251 68.68ZM96.7945 82.0057C95.7204 82.2237 94.7768 82.4416 93.9638 82.6586L93.7606 81.0042C94.6178 81.5413 95.6477 81.8751 96.7945 82.0057H96.7945ZM90.814 68.68L91.6564 75.7345C91.4679 76.199 91.3374 76.6781 91.3374 77.2004C91.3374 78.0281 91.6417 78.7969 92.1072 79.4793L92.5431 83.0796C92.2672 83.167 92.0061 83.2681 91.7733 83.3555L88.9427 68.6797L90.814 68.68ZM90.0452 82.0636C87.1714 82.6439 85.2264 83.2536 84.268 83.9076C83.8183 84.1982 83.3823 84.7932 82.9327 85.5914L83.0053 81.8024C83.0633 79.0445 85.081 76.7802 87.8105 76.4168L88.9278 76.2715L90.0452 82.0636ZM78.9541 81.7445C79.0552 77.0847 82.4526 73.2526 87.0544 72.6576L88.2012 72.4975L88.6509 74.849L87.6062 74.9796C84.1658 75.444 81.6112 78.2893 81.5532 81.7729L81.4079 89.1329C80.4211 91.9488 79.4629 95.5345 78.65 99.1055L78.9541 81.7445ZM78.693 116.322C78.5771 116.38 78.4603 116.452 78.3887 116.51C77.8084 116.874 77.2124 117.251 76.0519 116.467C76.4004 116.003 76.7048 115.553 76.9659 115.117C77.0386 115.001 77.0965 114.856 77.1544 114.711H79.1142C78.9257 115.291 78.693 116.322 78.693 116.322L78.693 116.322ZM77.3135 113.258C78.5761 105.826 80.7391 95.432 82.7863 89.5243C82.8011 89.5095 82.8011 89.4811 82.8158 89.4664C83.5993 87.1728 84.3839 85.5762 85.0799 85.112C85.5443 84.7929 86.8512 84.1979 90.3202 83.5008L90.436 84.0958C88.6068 85.7364 86.7346 91.9348 85.2392 98.307C84.3251 98.5829 83.6132 99.3232 83.4532 100.267C83.4532 100.267 81.9578 113.564 80.1 113.258L77.3135 113.258ZM80.2315 116.568L80.1441 116.481C80.2452 116.016 80.3905 115.508 80.5505 114.971L80.2315 116.568ZM81.9596 115.306L82.1776 114.217C82.207 114.304 82.2787 114.507 82.4819 114.58C82.3218 114.841 82.1333 115.073 81.9596 115.306V115.306ZM85.6022 116.307C85.4717 116.38 85.3695 116.452 85.2831 116.51C84.7029 116.874 84.1069 117.251 82.9601 116.467C83.2791 116.031 83.5845 115.581 83.8604 115.117C83.9478 115.001 84.0058 114.856 84.0637 114.711H86.0234C85.8497 115.291 85.7044 115.798 85.6022 116.307L85.6022 116.307ZM106.405 91.8619L96.1708 92.1231C95.8075 92.1378 95.5032 92.399 95.46 92.7623C94.8356 97.916 91.947 104.637 86.6489 113.259H83.7171C84.4279 109.049 85.4305 103.897 86.5478 99.1353C86.5478 99.1206 86.5478 99.0922 86.5625 99.0627C88.1737 92.1534 90.003 86.0993 91.4835 85.1126C93.0073 84.0817 98.3928 82.9643 106.595 81.9628L106.405 91.8619ZM105.548 80.6552L107.406 70.9439C107.973 71.5104 108.829 71.9453 109.554 71.9453C113.866 71.9022 118.845 62.3496 120.659 58.5175C120.514 59.7074 119.048 68.8386 118.496 70.8848L115.941 71.2186C111.05 71.8578 107.319 75.6762 106.695 80.4951C106.302 80.553 105.925 80.5825 105.548 80.6552L105.548 80.6552ZM128.208 64.7738L128.977 67.7784C129.326 69.1284 129.065 70.5659 128.295 71.7265C127.512 72.888 126.263 73.6568 124.884 73.8463L116.45 74.9784C113.01 75.4428 110.455 78.3029 110.397 81.7865L110.034 101.587H107.682L108.046 81.7579C108.147 77.0981 111.544 73.2659 116.146 72.671L124.55 71.5389C125.306 71.4378 125.944 71.045 126.35 70.4069C126.757 69.7677 126.887 69.0716 126.699 68.3744L125.929 65.3836C125.755 64.6865 125.683 63.9757 125.726 63.2933C125.813 61.958 126.945 60.8986 128.31 60.8986H129.181C128.338 61.4209 127.874 63.4965 128.208 64.7739L128.208 64.7738Z" fill="black"/>
<path d="M42.0839 28.9456H77.8662C78.2727 28.9456 78.5918 28.6118 78.5918 28.22L78.5928 4.60179C78.5928 4.19531 78.2738 3.87622 77.8673 3.87622H42.085C41.6933 3.87622 41.3594 4.19531 41.3594 4.60179V28.2338C41.3594 28.6118 41.6933 28.9457 42.085 28.9457L42.0839 28.9456ZM42.8095 5.32735H77.1414V23.6908L66.0072 16.6648C65.3543 16.2436 64.5845 15.8087 63.6989 15.9098C62.8859 16.0109 62.2762 16.549 61.7686 16.9839C60.9556 17.6947 60.0268 18.3771 59.0252 19.0595C58.5756 18.7404 58.1249 18.4203 57.6752 18.1012C57.0802 17.68 56.4989 17.2588 55.9039 16.8386C55.4101 16.5048 54.6845 15.9961 53.8283 16.113C53.1028 16.2141 52.5805 16.7227 52.115 17.1577C49.3423 19.8579 45.9312 21.8027 42.8099 23.5013L42.8095 5.32735ZM57.7179 19.8872C55.2506 21.4405 52.5791 22.761 50.3434 23.8353H45.1611C47.8907 22.3115 50.7214 20.5256 53.1592 18.1592C53.4636 17.8685 53.769 17.5642 54.0301 17.5347C54.306 17.5052 54.7557 17.7958 55.0611 18.0138C55.6413 18.4351 56.2374 18.8563 56.8324 19.2617C57.123 19.4955 57.4284 19.684 57.718 19.8872L57.7179 19.8872ZM42.8095 25.3021H77.1414V27.5083H42.8095V25.3021Z" fill="black"/>
<path d="M36.2042 77.3015L14.9236 77.272V63.8738C14.9236 63.4673 14.6045 63.1482 14.198 63.1482C13.7915 63.1482 13.4724 63.4673 13.4724 63.8738V77.272C13.4724 78.0849 14.1401 78.7526 14.9531 78.7526H36.2052C36.6116 78.7526 36.9307 78.4335 36.9307 78.027C36.9307 77.6205 36.6106 77.3015 36.2041 77.3015H36.2042Z" fill="black"/>
<path d="M11.3375 104.619H7.2441V98.7541C7.2441 98.3476 6.92502 98.0286 6.51853 98.0286C6.11205 98.0286 5.79297 98.3476 5.79297 98.7541V104.909C5.79297 105.549 6.31529 106.071 6.95451 106.071H11.3385C11.745 106.071 12.0641 105.752 12.0641 105.345C12.0641 104.939 11.744 104.619 11.3375 104.619L11.3375 104.619Z" fill="black"/>
<path d="M110.004 69.2165C112.079 69.2165 113.459 67.184 114.882 64.1353C115.055 63.772 114.896 63.3371 114.533 63.1622C114.17 63.0022 113.735 63.1475 113.56 63.5108C112.152 66.5299 111.121 67.7641 109.916 67.7641C109.51 67.7641 109.234 68.0832 109.234 68.4897C109.235 68.8962 109.612 69.2163 110.004 69.2163L110.004 69.2165Z" fill="black"/>
<path d="M62.6372 7.76743H74.8307V13.9512C74.8307 14.3577 75.1497 14.6768 75.5562 14.6768C75.9627 14.6768 76.2818 14.3577 76.2818 13.9512V7.04197C76.2818 6.63549 75.9627 6.31641 75.5562 6.31641H62.6371C62.2306 6.31641 61.9115 6.63549 61.9115 7.04197C61.9115 7.44846 62.2306 7.76754 62.6371 7.76754L62.6372 7.76743Z" fill="black"/>
<path d="M64.3356 107.77H61.9115C62.0852 107.349 62.1874 106.884 62.1874 106.42V100.004C62.1874 99.5972 61.8683 99.2781 61.4618 99.2781C61.0553 99.2781 60.7362 99.5972 60.7362 100.004V106.42C60.7362 107 60.4898 107.552 60.0391 107.944C59.8064 108.147 59.7348 108.466 59.8358 108.742C59.9369 109.018 60.2128 109.207 60.5182 109.207H64.3356C64.7421 109.207 65.0611 108.887 65.0611 108.481C65.0611 108.074 64.7421 107.77 64.3356 107.77H64.3356Z" fill="black"/>
<path d="M89.914 94.1532C89.972 94.168 90.0299 94.168 90.0741 94.168C90.4079 94.168 90.6986 93.9353 90.7849 93.6014C92.1497 87.7368 92.9048 87.0114 92.9911 86.9534C93.4987 86.6048 95.7059 86.0394 100.351 85.4728C100.743 85.4296 101.033 85.0663 100.99 84.6598C100.947 84.2681 100.569 83.9774 100.177 84.0206C95.764 84.5577 93.0648 85.1379 92.1793 85.734C91.8023 85.9804 90.9314 86.5617 89.378 93.2676C89.2748 93.6741 89.5212 94.0658 89.914 94.1532L89.914 94.1532Z" fill="black"/>
</svg>
