<svg width="122" height="124" viewBox="0 0 122 124" fill="none" xmlns="http://www.w3.org/2000/svg">
<path d="M121.388 52.7665L118.147 42.3445C117.063 38.8916 114.332 36.2861 110.817 35.388L103.35 33.468V28.1574C103.936 28.1204 104.808 27.9458 105.406 27.2721C106.042 26.5739 106.216 25.5646 105.93 24.2804C105.917 24.255 105.904 24.2306 105.893 24.2053C106.566 23.5071 107.039 22.6218 107.152 21.6993C107.201 21.3756 107.201 21.0509 107.164 20.7145C107.426 20.8764 107.688 21.0265 107.962 21.1757C108.348 21.3873 108.673 21.201 108.822 20.9641C108.996 20.6774 108.909 20.2913 108.61 20.1167C108.124 19.8173 107.625 19.556 107.139 19.2693L107.313 13.7219C108.311 13.8467 109.308 13.6848 110.218 13.1982C111.365 12.5995 112.201 11.5903 112.587 10.3559C112.961 9.12142 112.848 7.82537 112.238 6.67866C111.639 5.53192 110.63 4.69628 109.395 4.31022C108.447 4.02353 107.463 4.02353 106.54 4.31022C106.191 2.6525 104.945 1.26876 103.262 0.745293C101.58 0.233427 99.7845 0.656665 98.55 1.82873C97.9513 1.06815 97.141 0.507453 96.1941 0.220763C93.6383 -0.576889 90.9333 0.856537 90.1475 3.39952C89.7613 4.63398 89.8861 5.94252 90.4839 7.07673C90.9578 7.97387 91.6931 8.69737 92.5911 9.14593L89.5117 13.9453C89.1626 13.92 88.8135 13.8829 88.4644 13.8585C88.1153 13.8458 87.8286 14.1081 87.816 14.4445C87.7906 14.7936 88.0529 15.0803 88.402 15.1056C88.6136 15.1183 88.8379 15.1427 89.0504 15.1554C89.0378 15.2548 89.0134 15.3426 89.0007 15.4421C88.9139 16.6385 89.5994 17.7862 90.5842 18.2592C90.4721 19.0198 90.6711 19.8301 91.1449 20.4532C91.2444 20.578 91.3566 20.6648 91.4687 20.7769C90.6964 24.2055 90.9948 29.1922 92.8524 31.935C93.613 33.0691 94.5852 33.7302 95.7193 33.9418L90.3962 35.4503C86.5562 36.5346 83.7264 39.6267 83.0409 43.5282L81.6816 50.9079L75.673 49.3623C75.4487 49.2999 75.2488 49.375 75.0996 49.5115L73.7159 49.2375C72.9553 49.0503 72.5936 48.7763 72.145 48.4145C71.7209 48.0908 71.1972 47.6793 70.462 47.5047C70.0261 47.3926 69.5893 47.3799 69.1154 47.4794C69.053 47.4921 68.9906 47.5165 68.9282 47.5291L65.2509 43.8519L65.8867 43.2035C66.4474 42.6428 66.4854 41.7321 65.9735 41.1343L62.745 37.3071C62.471 36.9833 62.0595 36.7961 61.6353 36.7834C61.1868 36.7581 60.7997 36.9326 60.5013 37.2193L57.7466 39.9739C57.4473 40.286 57.2728 40.7092 57.2981 41.1333C57.3234 41.5575 57.5097 41.9563 57.8344 42.2303L61.6491 45.4589C61.9231 45.7085 62.2849 45.8206 62.634 45.8206C63.0328 45.8206 63.419 45.6714 63.7183 45.3721L64.3667 44.7363L67.7573 48.1269C67.4209 48.4262 67.1587 48.7997 67.0094 49.2492C66.4234 50.9947 67.8071 52.7898 68.4184 53.4754C68.9547 54.074 69.7153 54.4973 70.6622 54.7342C71.4101 54.9088 72.158 54.9459 72.6572 54.9459C73.1058 54.9459 73.605 54.8961 73.605 54.8961C73.6303 55.096 73.7542 55.2705 73.9414 55.3574L82.5312 59.3837C83.8155 59.9824 85.2986 60.0068 86.6081 59.4588C87.7928 58.9605 88.727 58.038 89.2506 56.8785L90.0736 67.7988L84.8626 99.0654C84.8128 99.3648 84.9874 99.6641 85.2867 99.7636C85.9351 99.9752 86.5836 100.175 87.2438 100.362L87.4183 111.944C87.4183 112.28 87.705 112.554 88.0414 112.554H88.528V115.521C88.1916 115.571 87.8922 115.758 87.705 116.032C86.3837 118.002 84.2892 119.049 81.3345 119.224C80.9601 119.249 80.611 119.435 80.3867 119.722C80.1498 120.021 80.0503 120.395 80.1254 120.769C80.2746 121.692 81.0478 123.711 84.6752 123.711C84.9492 123.711 85.8717 123.661 85.8717 123.661C94.0373 123.013 95.8821 122.776 96.1562 121.804C96.6672 122.726 97.7895 123.711 100.345 123.711C100.607 123.711 101.53 123.661 101.53 123.661C109.808 123.013 111.603 122.776 111.827 121.767C112.027 120.944 111.59 117.341 110.88 116.418C110.742 116.231 110.593 116.119 110.444 116.056V112.554H110.967C111.454 112.554 111.616 112.28 111.59 111.905L111.216 100.71C112.313 100.436 113.423 100.124 114.507 99.7624C114.794 99.6756 114.968 99.4006 114.943 99.1139L112.176 67.7987L112.387 59.7083L116.95 59.3338C117.673 59.2714 118.346 59.0218 118.969 58.6981C119.767 58.2866 120.527 57.4265 120.739 57.0901C121.601 55.8213 121.838 54.2387 121.388 52.7672L121.388 52.7665ZM91.9181 18.0711C91.9932 17.8965 91.9805 17.6849 91.881 17.5221C91.7942 17.3602 91.6197 17.2354 91.4198 17.2101C90.7469 17.1233 90.1853 16.3247 90.2477 15.5397C90.2604 15.4403 90.2975 15.3525 90.3228 15.2657C95.7707 15.802 100.82 17.2978 105.632 19.8535C105.645 19.8662 105.645 19.8788 105.645 19.8906C105.906 20.4269 106.006 21.0002 105.919 21.5239C105.856 22.0602 105.632 22.5711 105.296 23.0197C104.772 22.4463 103.837 22.0095 102.242 22.4834C102.291 21.8476 102.291 21.1865 102.03 20.6258C101.943 20.4386 101.756 20.3021 101.543 20.2768C101.332 20.2514 101.119 20.3392 100.983 20.501C100.446 21.1621 99.4118 21.4362 98.4892 21.1621C97.479 20.8628 96.5692 20.1519 96.0953 19.3046C95.9705 19.1047 95.7589 18.9681 95.5093 18.9925C95.2724 19.0052 95.0734 19.1544 94.973 19.367C94.7487 19.8779 94.2251 20.2768 93.6517 20.3392C93.091 20.4142 92.4797 20.152 92.1432 19.7034C91.7942 19.2431 91.7064 18.5946 91.9181 18.071L91.9181 18.0711ZM93.8878 31.2359C92.2798 28.8675 91.9932 24.5788 92.6036 21.4371C92.9898 21.5619 93.3886 21.6243 93.8001 21.5864C94.4729 21.4995 95.097 21.1749 95.5582 20.701C96.2193 21.4489 97.1417 22.0602 98.1267 22.3587C99.1242 22.6454 100.171 22.5332 101.019 22.072C100.919 22.583 100.844 23.7053 100.857 24.0291C100.857 24.2036 100.944 24.3655 101.069 24.4903L101.493 24.852C101.742 25.0266 102.079 24.9895 102.166 24.9515C102.39 24.852 102.527 24.6278 102.527 24.3781C102.515 24.1041 102.54 23.8672 102.602 23.6673C104.186 23.2187 104.497 23.9413 104.634 24.266C104.647 24.3031 104.697 24.4903 104.71 24.5527C104.909 25.4127 104.822 26.0485 104.485 26.4347C104.037 26.933 103.151 26.9583 102.852 26.9212C102.565 26.8959 102.303 27.0587 102.191 27.3201C102.166 27.3825 99.8467 33.2664 96.1072 32.7555C95.2345 32.6451 94.4992 32.1332 93.8879 31.2361L93.8878 31.2359ZM102.103 30.2013V33.231C102.09 33.2436 100.283 34.7395 99.6223 35.188C99.2732 35.425 98.1265 35.7741 97.5775 34.6771C97.4907 34.5025 97.3532 34.0286 97.3406 33.9789C99.4858 33.6172 101.094 31.7849 102.103 30.2014L102.103 30.2013ZM73.8924 53.6264L73.3191 53.6762C73.244 53.6762 72.1099 53.7883 70.9631 53.5143C70.2523 53.3524 69.7169 53.053 69.3552 52.6542C68.9807 52.2427 67.8096 50.7967 68.1958 49.6498C68.3206 49.2754 68.5819 48.9887 68.9437 48.8268C69.1056 48.74 69.5795 48.6025 70.1655 48.7147C70.652 48.8015 71.0129 49.1135 71.3746 49.4002C71.8856 49.799 72.4092 50.2105 73.4438 50.4601L74.3916 50.6473L73.8924 53.6264ZM88.715 44.5141C88.6526 44.1776 88.3406 43.9407 87.9915 44.0031C87.6551 44.0655 87.4181 44.3775 87.4805 44.7266L89.0143 53.8644L88.2411 56.0584C87.892 57.0686 87.1188 57.8907 86.1222 58.3148C85.1247 58.739 84.0403 58.7137 83.0555 58.2524L74.9523 54.4622C74.9776 54.4125 75.0274 54.3628 75.0391 54.3004L75.6622 50.6477L82.02 52.281C82.1575 52.3307 82.4062 52.2683 82.5066 52.2059C82.6558 52.1191 82.7562 51.969 82.7806 51.7944L84.2637 43.7538C84.8742 40.3252 87.3557 37.6077 90.7463 36.6482L96.3932 35.0529C96.5054 35.5639 97.0787 36.1246 97.578 36.3869C97.0543 36.6238 96.5181 36.8481 95.932 37.085C94.1622 37.5092 92.8155 39.2664 92.8653 41.1114L95.1091 67.2036H91.2818L90.2599 53.8026L88.715 44.5141ZM88.4907 100.699C90.8466 101.298 93.2151 101.709 95.5719 101.934L94.824 111.308H88.6536L88.4907 100.699ZM93.539 116.257C93.4522 116.307 93.3644 116.356 93.2894 116.406C92.5288 116.893 91.5693 117.466 89.774 116.044V112.554H93.539L93.539 116.257ZM104.198 115.522C103.861 115.571 103.549 115.759 103.362 116.033C102.041 118.002 99.9591 119.05 96.9918 119.224C96.6427 119.249 96.3306 119.424 96.1064 119.673C95.9445 118.401 95.6325 116.955 95.221 116.419C95.0835 116.231 94.9343 116.119 94.7851 116.057V112.554H95.3955C95.7193 112.554 95.9942 112.305 96.0187 111.981L96.8163 102.046C97.8383 102.108 99.6959 102.332 101.715 102.121L102.987 112.006C103.037 112.318 103.299 112.555 103.61 112.555H104.196L104.198 115.522ZM109.197 116.257C109.11 116.307 109.023 116.356 108.96 116.406C108.187 116.893 107.24 117.466 105.445 116.057V112.554H109.197L109.197 116.257ZM104.161 111.308L102.964 102.046C105.308 101.884 107.652 101.535 109.983 101.011L110.319 111.308L104.161 111.308ZM119.694 56.4174C119.134 57.215 118.41 57.963 116.839 58.0877L111.741 58.5119L108.499 58.6367L108.025 54.8717L113.398 53.1136C113.573 53.0639 113.698 52.9391 113.773 52.7772C113.848 52.628 113.848 52.4408 113.785 52.2789L110.594 44.4878C110.469 44.1758 110.096 44.0266 109.783 44.1514C109.46 44.2889 109.31 44.6497 109.447 44.9617L112.376 52.1425L107.153 53.85C106.991 53.8997 106.866 54.0118 106.791 54.1493C106.317 54.0869 105.557 54.0119 104.746 54.0498L103.662 50.6467C103.401 49.7867 102.615 49.2377 101.705 49.2133C101.144 49.2006 100.695 49.4629 100.52 49.5877C99.9965 49.9621 99.6727 50.5599 99.66 51.2084C99.66 51.3576 100.62 56.4692 100.632 56.4817C100.121 57.2052 99.7224 58.1023 99.9214 58.9994C99.9838 59.3738 100.308 60.2457 101.529 60.6951C102.165 60.9194 102.601 60.8199 102.726 60.8073C103.437 60.7078 104.01 60.346 104.471 60.0593C105.082 59.6849 105.756 59.2617 106.952 59.1242L107.288 59.0989L107.327 59.3594C107.364 59.6714 107.627 59.9083 107.95 59.9083L111.142 59.7835L110.942 67.2011H96.3564L94.1 41.0464C94.0746 39.812 95.0224 38.5903 96.3066 38.2664C99.8345 37.0699 102.44 34.5764 102.49 34.5384L110.518 36.5832C113.597 37.3809 116.003 39.6752 116.951 42.7041L120.179 53.1387C120.529 54.2474 120.367 55.4566 119.694 56.417L119.694 56.4174ZM107.14 57.8508C107.14 57.8508 105.145 58.0253 103.824 58.9975C103.375 59.334 102.477 59.7084 101.904 59.4958C101.343 59.2842 101.18 58.9596 101.143 58.7479C100.943 57.8381 102.04 56.5783 102.726 55.9806C103.101 55.6442 103.686 55.4199 104.397 55.3321C105.356 55.2073 106.379 55.3448 106.841 55.419L107.14 57.8508Z" fill="black"/>
<path d="M59.781 59.0615H3.43157C1.91043 59.0615 0.688538 60.296 0.688538 61.8161V118.163C0.688538 119.684 1.91033 120.906 3.43157 120.906H59.7787C61.2998 120.906 62.5333 119.684 62.5333 118.163V61.8161C62.5342 60.2959 61.2997 59.0615 59.7793 59.0615H59.781ZM61.2895 118.166C61.2895 119.002 60.6166 119.662 59.781 119.662H3.43157C2.59593 119.662 1.93575 119.001 1.93575 118.166V73.7236H61.288L61.2895 118.166ZM61.2895 72.4757H1.93726V61.8168C1.93726 60.9812 2.59836 60.3083 3.43308 60.3083H59.7802C60.6158 60.3083 61.2886 60.9812 61.2886 61.8168L61.2895 72.4757Z" fill="black"/>
<path d="M11.3866 114.149H51.8283C53.723 114.149 55.2694 112.604 55.2694 110.708V82.435C55.2694 80.5403 53.7238 78.9939 51.8283 78.9939L11.3866 78.9948C9.47927 78.9948 7.93372 80.5404 7.93372 82.4359V110.709C7.93281 112.603 9.47929 114.148 11.3866 114.148V114.149Z" fill="black"/>
<path d="M43.0121 63.0251C41.1671 63.0251 39.6588 64.5336 39.6588 66.3912C39.6588 68.2488 41.1672 69.7573 43.0121 69.7573C44.8823 69.7573 46.4027 68.2488 46.4027 66.3912C46.4036 64.5336 44.8824 63.0251 43.0121 63.0251Z" fill="black"/>
<path d="M52.7358 63.0251C50.8782 63.0251 49.3698 64.5336 49.3698 66.3912C49.3698 68.2488 50.8782 69.7573 52.7358 69.7573C54.606 69.7573 56.1264 68.2488 56.1264 66.3912C56.1273 64.5336 54.6062 63.0251 52.7358 63.0251Z" fill="black"/>
<path d="M7.7193 64.2358C7.37022 64.2358 7.09619 64.5099 7.09619 64.859V67.9129C7.09619 68.262 7.37022 68.536 7.7193 68.536C8.06839 68.536 8.34241 68.262 8.34241 67.9129V64.859C8.34241 64.5225 8.05572 64.2358 7.7193 64.2358Z" fill="black"/>
<path d="M11.8473 64.2358C11.4982 64.2358 11.2242 64.5099 11.2242 64.859V67.9129C11.2242 68.262 11.4982 68.536 11.8473 68.536C12.1964 68.536 12.4704 68.262 12.4704 67.9129V64.859C12.4704 64.5225 12.1964 64.2358 11.8473 64.2358Z" fill="black"/>
<path d="M15.9846 64.2358C15.6355 64.2358 15.3615 64.5099 15.3615 64.859V67.9129C15.3615 68.262 15.6355 68.536 15.9846 68.536C16.3336 68.536 16.6077 68.262 16.6077 67.9129V64.859C16.6086 64.5225 16.3219 64.2358 15.9846 64.2358Z" fill="black"/>
<path d="M20.1126 64.2358C19.7635 64.2358 19.4894 64.5099 19.4894 64.859V67.9129C19.4894 68.262 19.7635 68.536 20.1126 68.536C20.4616 68.536 20.7357 68.262 20.7357 67.9129V64.859C20.7357 64.5225 20.4616 64.2358 20.1126 64.2358Z" fill="black"/>
<path d="M24.2521 64.2358C23.903 64.2358 23.629 64.5099 23.629 64.859V67.9129C23.629 68.262 23.903 68.536 24.2521 68.536C24.6012 68.536 24.8752 68.262 24.8752 67.9129V64.859C24.8752 64.5225 24.5885 64.2358 24.2521 64.2358Z" fill="black"/>
<path d="M11.4722 4.39612H21.8445V24.1674C18.7651 24.4794 16.3341 27.0595 16.3341 30.2258C16.3341 33.6046 19.0888 36.3467 22.4675 36.3467C25.8463 36.3467 28.5884 33.6036 28.5884 30.2258C28.5884 27.0595 26.1702 24.4785 23.0908 24.1674L23.0917 4.39612H35.7331V16.6884C35.7331 17.4119 36.3191 18.0097 37.0417 18.0097H37.5527V28.6558H35.8443C34.7971 28.6558 33.9117 29.4662 33.8375 30.5008L33.2017 38.093C33.1647 38.6537 33.351 39.2153 33.738 39.6268C34.1242 40.0256 34.6478 40.2626 35.2094 40.2626H41.1312C41.7046 40.2626 42.2536 40.0256 42.6271 39.6015C43.0015 39.19 43.1878 38.6419 43.138 38.0803L42.5149 30.5008C42.4398 29.4662 41.5554 28.6559 40.5199 28.6559H38.7998V18.0097H39.3107C40.0342 18.0097 40.6193 17.4111 40.6193 16.6885V4.39619H51.3778V33.4055C51.3778 33.6171 51.4773 33.8414 51.6771 33.9418C51.9141 34.0666 52.1881 34.0042 52.2758 33.9671C54.8063 32.7209 56.3772 30.1897 56.3772 27.3725V18.4843C56.3898 17.7861 55.5922 17.8612 55.5922 17.8612L55.5913 4.39605H61.2383C61.5873 4.39605 61.8614 4.10936 61.8614 3.77294C61.8614 3.42386 61.5873 3.14983 61.2383 3.14983L11.4733 3.14893C11.1242 3.14893 10.8502 3.42295 10.8502 3.77204C10.8502 4.10936 11.1242 4.39605 11.4733 4.39605L11.4722 4.39612ZM52.6247 4.39612H54.3449V13.8206H52.6247V4.39612ZM52.6247 15.0668H54.3449V17.8594H52.6247V15.0668Z" fill="black"/>
<path d="M4.54054 118.488H16.1345C16.4836 118.488 16.7577 118.214 16.7577 117.865C16.7577 117.516 16.4836 117.242 16.1345 117.242L4.65259 117.241V109.636C4.65259 109.287 4.37857 109.013 4.02948 109.013C3.6804 109.013 3.40637 109.287 3.40637 109.636V117.353C3.40637 117.976 3.91733 118.488 4.54044 118.488L4.54054 118.488Z" fill="black"/>
<path d="M13.5675 61.7424H4.75362C3.9433 61.7424 3.29486 62.4035 3.29486 63.2139V69.1854C3.29486 69.5345 3.56889 69.8085 3.91797 69.8085C4.26706 69.8085 4.54108 69.5345 4.54108 69.1854V63.2139C4.54108 63.089 4.6279 62.9896 4.7527 62.9896H13.5666C13.9157 62.9896 14.1897 62.7155 14.1897 62.3665C14.1906 62.0165 13.904 61.7424 13.5675 61.7424L13.5675 61.7424Z" fill="black"/>
<path d="M94.4486 102.668C92.9031 102.519 91.3567 102.244 89.8236 101.858C89.6364 101.808 89.4374 101.858 89.2873 101.97C89.1381 102.082 89.0504 102.269 89.0504 102.456V105.997C89.0504 106.346 89.3244 106.62 89.6735 106.62C90.0225 106.62 90.2966 106.346 90.2966 105.997V103.254C91.6432 103.553 92.9889 103.778 94.3354 103.902C94.6845 103.952 94.9839 103.691 95.0209 103.342C95.0462 103.004 94.7976 102.692 94.4485 102.668L94.4486 102.668Z" fill="black"/>
<path d="M87.0817 54.1488C86.758 54.0366 86.3962 54.2112 86.2841 54.5349L85.9476 55.5071C85.8482 55.7811 85.6356 56.0181 85.3616 56.1302C85.0876 56.2424 84.7882 56.2424 84.5142 56.1176L80.9366 54.4472C80.6245 54.298 80.251 54.4345 80.1009 54.7466C79.9517 55.0586 80.0882 55.4321 80.4003 55.5822L83.9779 57.2526C84.2899 57.4018 84.6137 57.4769 84.9501 57.4769C85.2495 57.4769 85.5488 57.4145 85.8355 57.2896C86.4342 57.0283 86.9072 56.5417 87.1197 55.9304L87.4561 54.9582C87.5683 54.6227 87.4055 54.2609 87.0817 54.1488V54.1488Z" fill="black"/>
<path d="M108.324 37.1829L103.15 35.8616C102.95 35.8119 102.714 35.8869 102.551 36.0235C102.139 36.3979 100.681 37.6441 98.8114 38.2799C98.4877 38.392 98.3131 38.7411 98.4252 39.0649C98.5121 39.3262 98.7617 39.489 99.0113 39.489C99.0737 39.489 99.1487 39.4764 99.2111 39.4519C101.032 38.8288 102.478 37.7318 103.163 37.1458L108.025 38.3803C108.361 38.4671 108.698 38.2681 108.786 37.9317C108.86 37.607 108.66 37.2579 108.324 37.1829L108.324 37.1829Z" fill="black"/>
</svg>
