<svg width="125" height="124" viewBox="0 0 125 124" fill="none" xmlns="http://www.w3.org/2000/svg">
<path d="M122.703 112.278C118.46 108.852 113.691 106.116 108.527 104.096C108.783 101.502 108.936 98.906 108.987 96.3112C111.3 96.1702 113.576 95.2632 115.302 93.7673C117.348 92.0285 118.69 89.4978 119.01 86.813C119.227 84.7551 118.869 82.7224 118.511 80.7536C118.396 80.1786 118.294 79.6157 118.204 79.0408C117.974 77.5199 117.731 75.2569 118.421 73.3133C118.562 72.9173 118.728 72.5334 118.881 72.1504C119.495 70.6675 120.121 69.1336 119.712 67.2797C119.098 64.6079 116.618 63.0102 114.266 61.7833C113.243 61.2723 112.093 60.6843 111.632 59.7254C111.185 58.7415 111.491 57.5646 111.824 56.3248C111.939 55.8778 112.054 55.4429 112.144 55.0079C112.886 51.2493 111.006 47.1846 107.658 45.3179C104.321 43.4641 99.8593 44.014 97.0726 46.6218C94.2728 49.2294 93.4288 53.6272 95.0528 57.0919C95.2058 57.4119 95.3727 57.7309 95.5387 58.0378C95.9857 58.8688 96.4077 59.6487 96.4206 60.4537C96.4336 61.7956 95.6157 62.3965 94.2858 63.2665C93.9788 63.4835 93.6598 63.6885 93.3529 63.9185C91.87 65.0304 90.2212 66.3732 89.1852 67.881C88.1372 69.4149 87.8303 71.1917 88.3672 72.6365C88.8272 73.8635 89.8501 74.8734 91.4861 75.7302C91.844 75.9222 92.228 76.1011 92.598 76.2801C93.4419 76.6891 94.2339 77.0601 94.9248 77.597C95.7047 78.2109 96.5356 79.3358 96.3437 80.4606C96.1647 81.4965 95.2447 82.2375 94.2728 83.0175C93.7869 83.4135 93.2759 83.8224 92.828 84.2954C90.8981 86.3922 90.5522 89.8818 92.01 92.5916C93.3139 95.0075 95.8836 96.7973 98.9134 97.3723C99.7063 97.5253 100.537 97.6023 101.38 97.6023C101.7 97.6023 102.019 97.5643 102.339 97.5513C102.16 99.0342 101.93 100.479 101.674 101.898C95.3338 100.325 88.9165 99.8782 82.6009 100.607C79.6091 100.952 76.7204 101.54 73.6018 102.218C73.8318 101.298 74.0617 100.403 74.2797 99.5841C75.0216 96.8354 75.5455 94.8545 75.3156 93.5507C75.3026 93.4227 75.2386 93.2437 75.2006 93.1037C75.3026 93.0267 75.4055 92.9377 75.5075 92.8737C75.9675 92.5797 75.5335 91.7747 75.5335 91.7747C73.2457 86.8782 71.0719 82.2255 68.963 79.2467C68.976 79.1577 68.976 79.0548 68.95 78.9657C68.1571 76.2681 67.7352 73.7121 67.6331 71.1804C70.1518 70.2475 72.6828 67.8057 74.5486 66.0028C75.2645 65.2999 76.0825 64.507 76.2874 64.4179C77.4503 64.226 78.4482 63.8429 79.2531 63.28C79.7261 62.9351 79.854 62.5511 79.867 62.2961C79.88 62.1811 79.867 62.0661 79.8411 61.9761C79.905 61.8611 79.969 61.7332 80.02 61.5672C80.135 61.1832 80.033 60.8253 79.8411 60.5572C79.8411 60.4552 79.8411 60.3402 79.8151 60.2123C79.7771 59.8543 79.5851 59.6494 79.4441 59.5344C79.4312 59.4704 79.4182 59.3934 79.3931 59.3173C79.3162 59.0744 79.1372 58.8954 78.8822 58.7934C78.1533 58.5124 76.6064 59.0614 76.1083 59.3563C75.5074 59.7013 75.0214 60.3662 74.5874 61.4142L67.94 64.712L67.9511 64.5571C68.3471 60.8754 68.68 57.6797 66.6602 53.9471C66.5193 53.3212 66.6982 52.4133 66.8902 51.7483C67.6572 52.0933 68.897 52.4513 70.048 51.8893C70.5719 51.6333 72.1448 50.8414 71.8758 43.746C71.8888 43.733 71.9018 43.72 71.9138 43.695C72.4248 43.056 72.5918 42.2381 72.4128 41.3432C71.7228 38.0064 68.5141 35.0158 64.3336 35.7947C62.2368 36.1786 60.409 37.3675 59.2839 39.0543C58.325 40.5112 57.98 42.186 58.338 43.7718C58.785 45.8046 59.1559 46.3415 59.6678 47.0825C59.9878 47.5555 60.3967 48.1304 60.9337 49.3323C60.5627 50.0612 60.2048 50.4442 60.1918 50.4442C59.9868 50.6492 59.7828 50.8402 59.5658 51.0322C58.6329 51.9012 57.751 52.758 57.226 53.8699C54.4904 56.6307 51.1026 60.4915 50.4255 63.266C49.5436 66.9217 53.1483 73.6332 53.8772 74.937C53.7752 75.5379 53.5832 77.0458 54.0432 78.0948C53.0333 80.0506 52.6113 82.1725 52.1643 84.5252C51.6913 86.9669 51.2184 89.4849 49.9785 92.2846C49.8765 92.5146 49.9145 92.7836 50.0935 92.9746L50.3235 93.2046C50.1575 93.7285 49.9915 94.2275 49.8635 94.7514C42.756 93.8055 37.2586 98.9951 33.603 103.278C33.462 103.227 32.3881 103.048 31.3782 104.02C25.3058 103.764 20.602 103.943 16.3066 104.608C16.3956 103.496 16.4476 102.371 16.4726 101.246C18.0575 101.118 19.6173 100.504 20.8321 99.469C22.289 98.2161 23.248 96.4012 23.478 94.4834C23.6311 93.0135 23.363 91.5688 23.1071 90.1757C23.0431 89.7917 22.9661 89.4087 22.9021 89.0127C22.7491 87.9769 22.5822 86.443 23.0552 85.114C23.1572 84.846 23.2601 84.5771 23.3621 84.3212C23.8091 83.2473 24.257 82.1483 23.9631 80.7926C23.5161 78.8108 21.6363 77.6348 20.0513 76.8428C19.3354 76.4719 18.6065 76.0888 18.3125 75.4749C18.0185 74.836 18.2355 74.0431 18.4655 73.1992C18.5425 72.9052 18.6185 72.5982 18.6825 72.3043C19.2065 69.5945 17.8516 66.6668 15.4478 65.3368C13.0441 64.007 9.8362 64.3909 7.82845 66.2698C5.82162 68.1486 5.20771 71.3064 6.38361 73.8122C6.48562 74.0172 6.60061 74.2341 6.7156 74.4512C7.02535 75.0141 7.30634 75.551 7.31933 76.062C7.31933 76.8929 6.82039 77.2639 5.92548 77.8648C5.6955 78.0179 5.47849 78.1588 5.26055 78.3248C4.36564 78.9768 3.08773 79.9997 2.30768 81.1376C1.52775 82.2496 1.31075 83.5535 1.70675 84.6403C2.03967 85.5223 2.78064 86.2632 3.98252 86.9022C4.23846 87.0432 4.49349 87.1581 4.74946 87.2861C5.33742 87.5671 5.88736 87.8231 6.34733 88.181C6.87129 88.603 7.39527 89.293 7.26729 90.0089C7.15229 90.6479 6.57734 91.1078 5.9124 91.6448C5.55444 91.9388 5.18349 92.2327 4.86446 92.5777C3.45856 94.0986 3.20261 96.6303 4.26353 98.5991C5.19648 100.325 7.03741 101.603 9.21111 102.025C9.77403 102.14 10.362 102.191 10.9499 102.191C11.1029 102.191 11.2699 102.165 11.4229 102.165C11.2699 103.392 11.0779 104.607 10.8479 105.77C7.40836 106.743 3.06261 108.724 0.939947 112.47C0.862975 112.623 0.85092 112.598 0.862975 112.777L0.863903 123.361C0.863903 123.719 1.1449 124 1.50286 124H122.308C122.666 124 122.947 123.719 122.947 123.361V112.776C122.972 112.406 122.717 112.291 122.704 112.278L122.703 112.278ZM113.576 85.4721C113.896 85.6381 114.011 86.022 113.844 86.329C112.489 88.9238 110.852 91.3525 109.012 93.5514L108.974 91.5575C110.38 89.7427 111.633 87.7989 112.719 85.7411C112.885 85.4202 113.269 85.3052 113.576 85.4721L113.576 85.4721ZM111.236 71.8703C111.211 71.5123 111.466 71.2053 111.824 71.1803C112.182 71.1544 112.489 71.4103 112.514 71.7683C112.898 76.5618 111.479 81.5863 108.641 85.6001L108.449 83.5673C110.547 80.0516 111.557 75.871 111.237 71.8703L111.236 71.8703ZM120.377 112.137H107.414C107.81 109.912 108.13 107.675 108.386 105.425C112.693 107.151 116.708 109.401 120.377 112.137H120.377ZM99.4504 67.6753H99.4634C99.8083 67.6753 100.102 67.9563 100.102 68.3013C100.128 70.8199 101.035 73.3637 102.557 75.4216L102.672 77.5304C100.268 75.0635 98.8624 71.727 98.8245 68.3261C98.8235 67.9691 99.1045 67.6751 99.4504 67.6751L99.4504 67.6753ZM98.8105 82.6709C98.6695 82.3389 98.8365 81.968 99.1555 81.84C99.4875 81.699 99.8584 81.8659 99.9864 82.185C100.97 84.6267 101.955 85.9177 102.926 86.7615L102.9 88.3463C101.137 87.1064 99.8975 85.3935 98.8104 82.6709L98.8105 82.6709ZM102.812 102.856V102.843C102.825 102.83 102.812 102.817 102.812 102.805C103.464 99.3792 103.899 95.7616 104.078 91.9771C104.449 84.2559 103.925 76.4575 103.464 69.58C103.451 69.363 103.541 69.1581 103.732 69.0561C104.205 68.8001 104.525 69.0941 104.614 69.3881C106.071 74.6037 106.877 80.0111 107.35 85.4316C107.478 85.7256 107.72 93.3829 107.72 93.3959C107.963 98.1514 106.57 109.618 106.11 112.136H100.293C101.342 109.235 102.185 106.128 102.812 102.856L102.812 102.856ZM82.7549 101.884C88.9422 101.168 95.2318 101.603 101.444 103.15C100.818 106.333 99.9744 109.324 98.9385 112.137L72.1969 112.136C72.2099 109.119 72.6828 106.205 73.2708 103.597C76.5945 102.868 79.6243 102.242 82.7559 101.884L82.7549 101.884ZM69.14 95.7996C69.191 95.7486 69.229 95.6846 69.255 95.6206C71.0958 95.2246 72.7067 94.6367 74.0616 93.8438C74.2025 94.8917 72.3737 102.664 72.1057 102.971C71.4918 105.566 70.9808 108.493 70.9168 111.561C70.8788 111.574 68.91 112.52 67.312 112.686C65.1003 105.157 65.6882 99.8514 69.1399 95.7996H69.14ZM38.1013 107.151C38.0123 107.023 37.8843 106.921 37.7564 106.844C38.3443 106.384 38.8302 106.039 39.2132 105.796L39.5332 105.822C43.8158 106.129 48.2005 106.435 52.5721 106.435C55.4098 106.435 58.2476 106.295 61.0473 105.963C62.2102 105.81 63.438 105.618 64.729 105.388C64.793 107.433 65.151 109.67 65.8159 112.137L38.8298 112.136C38.1908 110.806 38.0248 109.464 38.3058 108.084C38.3819 107.752 38.3058 107.42 38.1009 107.151L38.1013 107.151ZM64.729 104.083C63.3741 104.339 62.1082 104.543 60.8944 104.684C54.5409 105.464 47.9955 105.119 41.604 104.684C44.4677 103.406 47.3315 102.587 49.7343 101.923C52.2271 101.233 54.03 100.721 54.9627 99.954C55.8066 99.2511 56.5986 98.3942 57.3534 97.4354C58.2224 97.7553 58.9003 97.5374 59.0153 97.3464C60.5111 94.8156 61.5722 92.0797 62.173 89.1781C63.7839 91.1599 65.1649 93.3197 66.2897 95.6334C66.4177 95.8764 66.6736 96.0174 66.9416 95.9914C67.1076 95.9784 67.2736 95.9534 67.4406 95.9274C65.7509 98.2533 64.8438 100.925 64.7289 104.083L64.729 104.083ZM56.0869 64.9651C56.0359 64.7601 55.9978 64.5691 55.9338 64.3391C55.9978 64.3011 56.0488 64.2621 56.0998 64.2241C56.0998 64.4662 56.0869 64.7221 56.0869 64.9651V64.9651ZM75.1733 62.5492C75.4932 62.3702 75.7232 62.1022 75.8382 61.8073C76.0941 61.1294 76.4261 60.6444 76.7461 60.4524C77.0781 60.2605 77.743 60.0685 78.152 60.0055C78.152 60.0824 78.165 60.1585 78.203 60.2225C78.267 60.3634 78.369 60.4784 78.497 60.5424C78.484 60.6064 78.471 60.6704 78.471 60.7344C78.458 60.9514 78.573 61.1693 78.752 61.2973C78.726 61.3353 78.726 61.3483 78.739 61.3483C78.573 61.4503 78.471 61.6293 78.445 61.8213C78.432 61.9622 78.471 62.0893 78.5341 62.2173C78.5341 62.2173 78.5211 62.2302 78.5081 62.2302C77.8691 62.6902 77.0512 62.9972 76.0794 63.1632C75.5684 63.2402 75.0055 63.7771 73.6507 65.081C71.3499 67.3058 67.5023 71.0385 64.8306 70.1306C63.4887 69.6957 62.2487 67.3698 61.4299 63.8923C62.3378 64.0713 64.1397 63.6113 65.2776 62.9593C65.6485 64.0462 65.8915 65.1071 65.9676 66.142C65.9805 66.347 66.1085 66.538 66.2875 66.641C66.4795 66.756 66.7094 66.756 66.8884 66.6669L75.1733 62.5492ZM60.5105 62.4342C60.1655 61.4113 59.6286 59.2515 60.2675 58.0367C60.4975 57.6018 60.8814 57.3208 61.4184 57.1928C61.9683 57.0648 62.4663 57.1548 62.9393 57.4488C64.2942 58.3057 65.0361 60.5424 65.2911 61.4503C63.6042 62.6002 62.0443 62.9192 60.5104 62.4342L60.5105 62.4342ZM62.0954 49.8804C62.7343 49.6504 64.2682 48.9604 64.5371 47.4135C64.6141 46.9535 64.5371 46.4675 64.4601 45.9946C64.3322 45.2017 64.3071 44.8057 64.5881 44.6137C64.8441 44.4217 65.087 44.3967 65.33 44.5117C65.7649 44.7037 66.135 45.3046 66.199 45.8286C66.199 45.8286 66.314 47.0555 67.0679 46.9275C67.0679 46.9275 67.9628 47.0935 68.1669 46.3266L68.3458 45.2907C68.8958 45.2267 69.7907 45.0737 70.6086 44.6768C70.6726 48.6524 70.0977 50.4292 69.4837 50.7361C68.3718 51.2861 66.8888 50.3142 66.876 50.3012C66.71 50.1862 66.5181 50.1602 66.3261 50.2122C66.1471 50.2762 65.9941 50.4171 65.9171 50.5961C65.8401 50.8011 65.2012 52.5009 65.3542 53.8939C65.0092 54.0349 63.0274 52.986 61.4555 50.9282C61.6354 50.6862 61.8654 50.3153 62.0954 49.8803L62.0954 49.8804ZM57.4037 63.0862C57.4677 59.9794 57.5317 57.2827 58.1456 54.9689C58.4776 53.793 59.9735 52.1692 60.5615 51.8501C62.1974 53.959 63.8982 55.1997 65.1762 55.1997C65.4062 55.1997 65.5981 55.1487 65.7901 55.0847C67.171 57.9355 67.081 60.4793 66.787 63.4709C66.672 63.0619 66.519 62.653 66.3651 62.256C66.5571 62.205 66.6971 61.8211 66.6331 61.5781C66.6071 61.4251 65.7762 57.7435 63.6294 56.3756C62.8625 55.8896 62.0186 55.7496 61.1236 55.9536C60.2157 56.1586 59.5508 56.6695 59.1418 57.4495C58.0169 59.5583 59.3588 63.0231 59.4228 63.1769C59.4868 63.3429 59.6147 63.4709 59.7807 63.5349C59.8698 63.5729 59.9597 63.5859 60.0487 63.6119C60.7267 66.7825 62.0176 70.5532 64.4204 71.3461C64.8423 71.4871 65.6222 71.7301 66.3632 71.4992C66.4522 73.442 66.7342 75.3858 67.2201 77.3926L56.4311 75.3727C56.4181 75.3727 56.4052 75.3857 56.3931 75.3727C57.2379 70.5254 57.3399 66.4348 57.4039 63.086L57.4037 63.0862ZM51.6763 63.5721C52.1622 61.5143 54.514 58.6376 56.5469 56.4387C56.2529 58.2925 56.1889 60.3253 56.1379 62.5752C55.831 62.8182 55.524 63.0742 55.192 63.3041C54.7571 63.6111 54.566 64.161 54.681 64.672C55.384 67.4328 55.486 68.8646 55.282 69.8625C55.077 70.8724 55.4739 72.0232 55.5629 72.3042C55.4609 73.1351 55.7289 75.641 55.103 74.503C53.9651 72.4173 50.9614 66.4608 51.6762 63.572L51.6763 63.5721ZM50.2323 96.0922C50.5773 96.1692 50.8973 95.9392 50.9742 95.6063C51.0762 95.1333 51.2042 94.6733 51.3452 94.2003C52.777 95.4783 54.3239 96.4251 56.0238 97.0381C55.4229 97.754 54.7969 98.4189 54.1449 98.9679C53.416 99.5689 51.55 100.08 49.3894 100.694C46.5006 101.499 42.921 102.497 39.4563 104.299C38.3314 103.442 37.4874 102.381 36.9376 101.55C41.5141 96.9992 45.707 95.2994 50.2324 96.0923L50.2323 96.0922ZM19.5783 93.3566C19.8982 93.5226 20.0132 93.9065 19.8463 94.2135C18.9003 96.0283 17.7625 97.7292 16.4715 99.2631L16.4456 97.1663C17.2765 96.0414 18.0564 94.8785 18.7213 93.6256C18.8882 93.3057 19.2713 93.1898 19.5782 93.3567L19.5783 93.3566ZM17.6614 84.0495C17.6354 83.6915 17.8914 83.3845 18.2494 83.3595C18.5943 83.3465 18.9143 83.5895 18.9393 83.9475C19.2073 87.3353 18.2234 90.8629 16.2416 93.6627L16.0117 91.6048C17.2645 89.291 17.8655 86.6323 17.6614 84.0496L17.6614 84.0495ZM16.2036 105.923C20.1023 105.284 24.3597 105.079 29.7154 105.245C29.3064 105.59 28.9735 105.91 28.8464 106.102C28.3735 106.83 29.0764 107.968 32.5151 112.135H15.3726C15.7435 110.077 16.0115 108.006 16.2035 105.923L16.2036 105.923ZM9.63306 80.9188C9.96506 80.8678 10.285 81.1998 10.285 81.5447C10.298 83.0406 10.771 84.5484 11.5629 85.8273L11.6779 88.0521C10.0031 86.3263 9.03202 83.9744 9.00614 81.5706C9.00614 81.2127 9.28806 80.9187 9.63304 80.9187L9.63306 80.9188ZM9.00617 91.6318C8.86521 91.3118 9.03213 90.9418 9.36413 90.8009C9.68408 90.6859 10.0541 90.8389 10.1951 91.1718C10.745 92.5657 11.307 93.4086 11.8569 93.9716L11.8309 95.6074C10.617 94.7376 9.74807 93.5236 9.00627 91.6318L9.00617 91.6318ZM12.7907 101.398C12.7907 101.385 12.7777 101.385 12.7777 101.372C13.1227 100.375 13.1357 95.2486 13.1227 95.1596C13.1607 90.7369 12.8927 86.3643 12.6237 82.4276C12.6237 82.3507 12.6618 82.2746 12.7258 82.2357C12.8027 82.1717 13.0067 82.1847 13.0457 82.3507C15.4616 92.0148 15.8834 102.293 14.0816 112.136H10.4129C11.4868 110.206 12.8027 101.488 12.7908 101.398L12.7907 101.398ZM10.5149 107.19C10.1059 108.915 9.64596 110.577 9.07008 112.137L2.69165 112.136C4.5835 109.554 7.79211 108.046 10.5149 107.19L10.5149 107.19ZM121.667 122.721H2.14155V113.415H33.5648C33.8078 113.709 34.5108 114.54 34.5108 114.54C35.9936 116.33 37.3105 116.828 38.3204 116.828C39.1133 116.828 39.7263 116.521 40.0713 116.278C40.3653 116.073 40.5702 115.754 40.6212 115.383C40.6593 115.025 40.5573 114.654 40.3143 114.386C40.0463 114.054 39.8033 113.734 39.5724 113.414L66.1882 113.415V113.441C66.2011 113.492 67.0191 115.934 67.1851 116.369C67.0191 116.484 66.8651 116.65 66.7761 116.919C66.3922 117.993 67.1081 121.38 67.466 122.006C67.645 122.313 67.977 122.402 68.6419 122.466C70.0479 122.607 77.5393 120.677 77.5393 120.677C81.579 119.705 81.6939 117.404 81.566 116.458C81.5149 116.087 81.31 115.768 80.991 115.563C80.697 115.358 80.3131 115.295 79.9811 115.397C77.3352 116.062 75.1365 115.729 73.4357 114.4C73.1798 114.195 72.5788 113.927 72.2849 114.259C72.2589 113.978 72.2209 113.696 72.2079 113.415H121.669L121.667 122.721Z" fill="black"/>
<path d="M7.58913 31.4332C8.01107 31.4332 8.42005 31.3952 8.82904 31.3182C10.0949 32.9541 12.0507 33.9259 14.1346 33.9259C16.0394 33.9259 17.8033 33.146 19.0691 31.7781C20.0281 32.43 21.1659 32.788 22.3287 32.788C23.9016 32.788 25.3844 32.162 26.4703 31.0492C27.1223 31.2022 27.7872 31.1642 28.3751 30.9472C29.385 32.341 31.021 33.184 32.7468 33.184C35.7386 33.184 38.1673 30.7423 38.1673 27.7384C38.1673 24.7596 35.7386 22.3309 32.7468 22.3309C32.1208 22.3309 31.5198 22.4329 30.9439 22.6379C30.215 20.2472 27.9521 18.5212 25.3955 18.5212C24.6925 18.5212 24.0146 18.6492 23.3757 18.8922C23.3126 15.8624 20.8328 13.4207 17.7902 13.4207C14.8504 13.4207 12.4338 15.7085 12.2296 18.5983C11.8336 18.6753 11.4497 18.7773 11.0787 18.9182C10.0308 18.2923 8.82892 17.9593 7.58908 17.9593C3.88148 17.9593 0.864746 20.9761 0.864746 24.6958C0.865673 28.4164 3.88243 31.4331 7.58908 31.4331L7.58913 31.4332ZM7.58913 19.2373C8.70105 19.2373 9.76195 19.5573 10.6569 20.1703C10.8489 20.2983 11.0918 20.3233 11.2959 20.2213C11.7948 19.9913 12.3317 19.8503 12.9067 19.8123C13.0987 19.7993 13.2647 19.6843 13.3797 19.5313C13.4817 19.3904 13.5327 19.1734 13.4947 18.9944C13.4947 16.6296 15.4245 14.6987 17.7903 14.6987C20.1682 14.6987 22.0981 16.6286 22.0981 18.9944C22.0981 19.2884 22.0601 19.5693 22.0091 19.8383C21.9581 20.0942 22.0601 20.3493 22.265 20.5032C22.482 20.6442 22.764 20.6442 22.9809 20.5032C23.6969 20.0432 24.5278 19.8003 25.3968 19.8003C27.6086 19.8003 29.5384 21.4491 29.8584 23.6349C29.8964 23.8398 30.0244 24.0188 30.2164 24.1208C30.3954 24.2099 30.6124 24.1978 30.8043 24.1078C31.3923 23.7759 32.0572 23.6089 32.7472 23.6089C35.035 23.6089 36.8888 25.4627 36.8888 27.7377C36.8888 30.0385 35.0349 31.9054 32.7472 31.9054C31.2773 31.9054 29.9095 31.1004 29.1676 29.8216C29.0785 29.6806 28.9376 29.5656 28.7836 29.5276C28.6176 29.4766 28.4386 29.5016 28.2977 29.5916C27.7737 29.8985 27.1088 29.9495 26.4948 29.7195C26.2389 29.6305 25.9579 29.7066 25.7789 29.9115C24.922 30.9214 23.6571 31.5094 22.3272 31.5094C21.2534 31.5094 20.2054 31.1254 19.3874 30.4104C19.2465 30.2955 19.0805 30.2444 18.9015 30.2574C18.7225 30.2834 18.5695 30.3724 18.4545 30.5134C17.4316 31.8683 15.8596 32.6482 14.1339 32.6482C12.3311 32.6482 10.6443 31.7533 9.63432 30.2444C9.50634 30.0655 9.31436 29.9634 9.09737 29.9634C9.04637 29.9634 8.99536 29.9764 8.94436 29.9894C8.49737 30.1044 8.04945 30.1554 7.58947 30.1554C4.58579 30.1554 2.14382 27.7006 2.14382 24.6969C2.14382 21.6793 4.58555 19.2375 7.58947 19.2375L7.58913 19.2373Z" fill="black"/>
<path d="M120.505 6.91544C120.058 6.91544 119.61 6.99241 119.188 7.12039C118.562 5.27955 116.797 3.96263 114.791 3.96263C114.292 3.96263 113.807 4.0396 113.359 4.19262C113.206 1.85285 111.263 0 108.885 0C106.558 0 104.641 1.77685 104.423 4.05255C104.167 4.10355 103.924 4.16754 103.682 4.2575C102.864 3.78453 101.931 3.52859 100.959 3.52859C97.993 3.52859 95.5892 5.93234 95.5892 8.89803C95.5892 12.1707 98.581 14.7786 101.866 14.2036C102.876 15.4695 104.41 16.2234 106.046 16.2234C107.516 16.2234 108.897 15.6355 109.894 14.5876C111.671 15.7384 114.177 15.4695 115.672 13.9996C116.145 14.0886 116.618 14.0636 117.053 13.9356C117.871 14.9965 119.15 15.6355 120.505 15.6355C122.909 15.6355 124.865 13.6797 124.865 11.276C124.864 8.87127 122.908 6.91551 120.505 6.91551L120.505 6.91544ZM120.505 14.3558C119.406 14.3558 118.396 13.7678 117.846 12.8219C117.757 12.6689 117.616 12.566 117.45 12.515C117.284 12.4769 117.118 12.502 116.964 12.5789C116.606 12.796 116.146 12.847 115.686 12.681C115.443 12.5789 115.162 12.655 114.983 12.8599C113.821 14.2278 111.583 14.4198 110.215 13.2439C110.087 13.1289 109.908 13.0649 109.729 13.0909C109.563 13.1038 109.397 13.1929 109.294 13.3338C108.514 14.3567 107.338 14.9447 106.047 14.9447C104.692 14.9447 103.426 14.2668 102.659 13.1419C102.544 12.9629 102.339 12.8609 102.135 12.8609C102.084 12.8609 102.033 12.8609 101.982 12.8738C99.3617 13.5388 96.8689 11.493 96.8689 8.89822C96.8689 6.6484 98.7097 4.80769 100.959 4.80769C101.79 4.80769 102.583 5.05065 103.26 5.51063C103.452 5.6386 103.682 5.65159 103.899 5.56163C104.27 5.38265 104.679 5.28063 105.101 5.25466C105.28 5.24168 105.459 5.13967 105.561 4.99871C105.676 4.8457 105.727 4.65374 105.689 4.47475C105.689 2.71089 107.121 1.27901 108.885 1.27901C110.649 1.27901 112.08 2.71086 112.08 4.47475C112.08 4.69176 112.068 4.8967 112.017 5.10073C111.965 5.35668 112.068 5.6117 112.285 5.75267C112.489 5.90569 112.77 5.90569 112.987 5.76565C113.524 5.42068 114.15 5.2417 114.79 5.2417C116.439 5.2417 117.871 6.46862 118.114 8.10531C118.152 8.31026 118.28 8.48924 118.472 8.57827C118.651 8.6673 118.881 8.6673 119.06 8.56529C119.507 8.32232 119.993 8.19434 120.505 8.19434C122.205 8.19434 123.586 9.5752 123.586 11.2752C123.586 12.9752 122.205 14.356 120.505 14.356L120.505 14.3558Z" fill="black"/>
<path d="M53.9406 21.6688C58.3512 21.6688 61.956 18.077 61.956 13.6665C61.956 9.23075 58.3512 5.62524 53.9406 5.62524C49.518 5.62524 45.9253 9.23004 45.9253 13.6665C45.9253 18.0761 49.518 21.6688 53.9406 21.6688Z" fill="black"/>
<path d="M92.5739 36.5994C93.3158 36.3694 94.2098 36.5224 95.0287 37.0083C95.3867 37.2133 95.7187 37.4943 95.9876 37.8263C96.0386 37.9153 96.1156 38.0312 96.2046 38.1462L96.3456 38.3382C96.4606 38.5172 96.6656 38.6192 96.8825 38.6192C97.0996 38.6192 97.2915 38.5172 97.4195 38.3382L97.5475 38.1592C97.6365 38.0312 97.7265 37.9033 97.7265 37.8912C98.0464 37.4952 98.3784 37.2013 98.7494 36.9963C99.5422 36.5233 100.462 36.3703 101.204 36.5873C101.536 36.6893 101.894 36.4983 101.997 36.1524C102.099 35.8204 101.908 35.4624 101.562 35.3595C100.463 35.0275 99.1973 35.2185 98.0974 35.8834C97.6624 36.1264 97.2794 36.4464 96.8705 36.8934C96.4865 36.4584 96.0905 36.1264 95.6556 35.8834C94.5567 35.2185 93.2908 35.0265 92.2039 35.3465C91.8719 35.4485 91.667 35.8065 91.769 36.1394C91.884 36.5094 92.229 36.6884 92.5739 36.5994L92.5739 36.5994Z" fill="black"/>
<path d="M71.4542 19.6341C72.1961 19.4041 73.0901 19.5572 73.909 20.0431C74.267 20.2481 74.599 20.5291 74.8679 20.8481C74.919 20.9371 75.0089 21.0651 75.0979 21.193L75.2259 21.372C75.3409 21.551 75.5459 21.653 75.7629 21.653C75.9799 21.653 76.1718 21.551 76.2998 21.372L76.4408 21.1801C76.5177 21.0651 76.6068 20.9501 76.6068 20.9371C76.9267 20.5411 77.2587 20.2471 77.6297 20.0422C78.4226 19.5692 79.3425 19.4162 80.0845 19.6332C80.4164 19.7352 80.7744 19.5442 80.8773 19.1983C80.9794 18.8663 80.7883 18.5083 80.4424 18.4054C79.3435 18.0734 78.0776 18.2774 76.9777 18.9293C76.5428 19.1723 76.1597 19.4923 75.7508 19.9393C75.3668 19.5043 74.9708 19.1723 74.5359 18.9293C73.424 18.2644 72.1711 18.0724 71.0842 18.3924C70.7522 18.4944 70.5473 18.8524 70.6493 19.1853C70.7643 19.5442 71.1093 19.7362 71.4543 19.6341L71.4542 19.6341Z" fill="black"/>
<path d="M30.4326 48.8185C30.0106 49.0615 29.6146 49.3814 29.2057 49.8284C28.8217 49.3935 28.4257 49.0615 27.9908 48.8185C26.8919 48.1536 25.626 47.9616 24.5391 48.2816C24.2071 48.3836 24.0022 48.7415 24.1042 49.0745C24.2062 49.4064 24.5512 49.6114 24.8971 49.5094C25.639 49.2924 26.533 49.4324 27.3519 49.9313C27.7099 50.1363 28.0418 50.4173 28.3108 50.7493C28.3618 50.8383 28.4388 50.9542 28.5278 51.0692L28.6688 51.2612C28.7838 51.4402 28.9887 51.5422 29.2057 51.5422C29.4227 51.5422 29.6147 51.4402 29.7427 51.2612L29.8706 51.0692C29.9597 50.9542 30.0366 50.8263 30.0366 50.8133C30.3566 50.4173 30.6886 50.1233 31.0595 49.9184C31.8524 49.4454 32.7724 49.2924 33.5143 49.5094C33.8593 49.6114 34.2043 49.4204 34.3072 49.0745C34.4092 48.7425 34.2182 48.3845 33.8723 48.2816C32.7854 47.9616 31.5195 48.1536 30.4327 48.8185H30.4326Z" fill="black"/>
<path d="M65.9962 68.5328C65.7022 68.4438 65.0243 67.6759 64.5003 65.4772C64.4234 65.1322 64.0784 64.9142 63.7334 65.0042C63.3884 65.0812 63.1705 65.4261 63.2604 65.7711C63.6314 67.369 64.3473 69.3508 65.6002 69.7598C65.6642 69.7858 65.7282 69.7858 65.7922 69.7858C66.0602 69.7858 66.3161 69.6198 66.4061 69.3388C66.5201 68.9929 66.3412 68.6349 65.9962 68.5329L65.9962 68.5328Z" fill="black"/>
<path d="M19.4405 120.062H5.0719L4.91888 115.408C4.9059 115.051 4.67592 114.757 4.25395 114.795C3.89599 114.808 3.62798 115.102 3.64004 115.46L3.81902 120.726C3.83201 121.071 4.11301 121.34 4.45798 121.34H19.4527C19.8106 121.34 20.0916 121.059 20.0916 120.701C20.0925 120.343 19.7986 120.062 19.4406 120.062H19.4405Z" fill="black"/>
<path d="M32.8612 26.1936C33.9481 26.1936 34.8301 27.0756 34.8301 28.1495C34.8301 28.5074 35.1111 28.7884 35.469 28.7884C35.827 28.7884 36.108 28.5074 36.108 28.1495C36.108 26.3596 34.6511 24.9148 32.8612 24.9148C32.5032 24.9148 32.2222 25.1958 32.2222 25.5538C32.2213 25.9126 32.5032 26.1936 32.8612 26.1936H32.8612Z" fill="black"/>
<path d="M18.0328 16.5544C19.0557 16.5544 19.8736 17.3084 19.8736 18.2292C19.8736 18.5872 20.1546 18.8682 20.5126 18.8682C20.8705 18.8682 21.1515 18.5872 21.1515 18.2292C21.1515 16.6054 19.7456 15.2764 18.0327 15.2764C17.6747 15.2764 17.3937 15.5574 17.3937 15.9153C17.3937 16.2724 17.6747 16.5543 18.0327 16.5543L18.0328 16.5544Z" fill="black"/>
<path d="M4.2654 25.3105C4.62336 25.3105 4.90436 25.0295 4.90436 24.6715C4.90436 23.5207 5.8373 22.5877 6.98816 22.5877C7.34612 22.5877 7.62712 22.3067 7.62712 21.9488C7.62712 21.5908 7.34612 21.3098 6.98816 21.3098C5.13434 21.3098 3.62646 22.8187 3.62646 24.6715C3.62646 25.0295 3.90746 25.3105 4.26542 25.3105L4.2654 25.3105Z" fill="black"/>
<path d="M14.6971 31.9721C15.822 31.9721 16.8449 31.4611 17.5099 30.5783C17.7269 30.2973 17.663 29.9004 17.382 29.6834C17.101 29.4664 16.704 29.5304 16.4871 29.8113C15.6181 30.9622 13.6493 30.9233 12.8314 29.6964C12.6395 29.4024 12.2435 29.3254 11.9495 29.5174C11.6555 29.7093 11.5786 30.1053 11.7705 30.3993C12.4216 31.3842 13.5205 31.9721 14.6973 31.9721L14.6971 31.9721Z" fill="black"/>
<path d="M119.356 9.43408C118.998 9.43408 118.717 9.71508 118.717 10.073C118.717 10.431 118.998 10.712 119.356 10.712C119.944 10.712 120.43 11.198 120.43 11.7859C120.43 12.1439 120.711 12.4248 121.069 12.4248C121.427 12.4248 121.708 12.1439 121.708 11.7859C121.709 10.482 120.66 9.43408 119.356 9.43408V9.43408Z" fill="black"/>
<path d="M101.356 6.86438C100.014 6.86438 98.927 7.95125 98.927 9.29306C98.927 9.65102 99.208 9.93202 99.566 9.93202C99.9239 9.93202 100.205 9.65102 100.205 9.29306C100.205 8.6541 100.716 8.14218 101.356 8.14218C101.714 8.14218 101.995 7.86118 101.995 7.50322C101.996 7.14525 101.714 6.86426 101.356 6.86426L101.356 6.86438Z" fill="black"/>
<path d="M41.9895 100.324C42.1175 100.324 42.2455 100.286 42.3605 100.209C45.2372 98.2025 47.8959 97.4354 50.6956 97.7806C51.2326 97.8697 51.7436 97.5757 51.8975 97.1157C51.9995 96.7837 51.8205 96.4258 51.4885 96.3108C51.2326 96.2338 50.9776 96.3108 50.8106 96.5027C47.6659 96.1318 44.7641 96.9757 41.6445 99.1614C41.3506 99.3664 41.2866 99.7624 41.4915 100.056C41.5805 100.235 41.7846 100.324 41.9895 100.324L41.9895 100.324Z" fill="black"/>
</svg>
