<svg width="124" height="124" viewBox="0 0 124 124" fill="none" xmlns="http://www.w3.org/2000/svg">
<path d="M122.786 113.418H119.442C119.442 113.418 112.983 109.325 109.905 107.373V101.175H122.786C123.001 101.175 123.204 101.074 123.317 100.882C123.431 100.704 123.444 100.474 123.355 100.27L118.239 89.2765H120.696C120.911 89.2765 121.114 89.1618 121.228 88.9702C121.355 88.7787 121.355 88.5493 121.254 88.3457L115.39 76.9317H118.987C119.215 76.9317 119.418 76.8169 119.532 76.6125C119.646 76.4209 119.646 76.1785 119.532 75.975L106.373 52.636C106.145 52.2409 105.499 52.2409 105.271 52.636L92.1253 75.975C92.0114 76.1795 92.0114 76.4209 92.1253 76.6125C92.2393 76.8169 92.4543 76.9317 92.6702 76.9317H96.2543L90.4035 88.3457C90.3024 88.5502 90.3153 88.7796 90.4292 88.9702C90.5431 89.1618 90.7462 89.2765 90.974 89.2765H93.4061L90.6828 95.1681C88.0487 93.4972 85.4264 91.8264 82.8052 90.1685C80.6644 88.8038 78.5493 87.5797 76.2064 87.898C73.6099 88.2422 70.6081 91.1251 70.6081 91.1251C67.214 94.0969 63.617 96.7494 59.919 99.2233C56.1952 96.5708 52.4593 93.9053 48.7225 91.2528L52.2058 67.7103C52.2692 67.6973 52.3325 67.6724 52.4088 67.6335C53.131 67.2505 53.3588 66.2689 53.4976 65.2743C53.6749 64.0882 53.2826 63.3869 52.8893 62.9918L53.4719 59.0892C53.5224 58.7321 53.2817 58.4129 52.9399 58.362C52.5981 58.3111 52.2682 58.5535 52.2177 58.8977L51.7115 62.3155C50.9259 62.099 50.065 62.1369 49.4062 62.2387C49.3805 62.1878 49.4062 61.8436 48.9505 61.8306L40.3508 60.1089L36.5634 47.9416C36.1582 46.6408 35.3221 45.5693 34.1819 44.8301C34.1442 44.6645 34.068 44.5109 33.9035 44.4221C33.9035 44.4221 32.2065 43.236 31.6488 43.3507L31.6993 42.9806C31.737 42.6494 31.522 42.3432 31.1931 42.2793C31.1802 42.2793 31.1674 42.2664 31.1554 42.2664L31.4724 40.5067C32.5612 40.6593 33.4101 40.4178 34.0056 39.7795C35.2846 38.4407 35.2092 35.5069 33.7906 30.6228C34.183 30.3934 34.4494 30.125 34.5633 29.7679C34.9437 28.6586 33.7401 27.5743 32.7901 26.8601C30.7256 25.3169 28.3568 24.9727 26.103 25.9164C24.3298 26.6565 22.7845 28.1868 21.9363 29.8827C21.5945 29.755 21.0873 29.5126 20.4295 29.0667C19.2893 28.2886 17.7062 28.3654 16.3895 29.2452C14.9709 30.2019 14.2873 31.8089 14.6163 33.428C14.9709 35.2266 15.7436 36.1066 16.3132 36.757C16.7561 37.2667 16.9592 37.5221 16.972 37.969C16.9849 39.8823 16.339 40.6087 16.339 40.6087C16.1617 40.7872 16.1111 41.0676 16.2122 41.297C16.3004 41.5394 16.5411 41.6921 16.7947 41.6921C16.8958 41.6921 19.315 41.6541 20.9485 38.5806C21.5439 37.4453 21.0496 36.361 20.6573 35.4811C20.1253 34.295 20.5057 33.0582 21.1892 33.0582C21.0248 36.744 22.6841 38.8989 24.3683 40.1239H24.3307C24.1533 40.2127 24.0265 40.3533 23.976 40.5448L23.5708 42.0242L21.3795 42.4193C20.8347 42.5211 20.3027 42.7126 19.7964 42.9679L16.6679 42.522C14.641 42.522 13.0076 44.5371 13.0076 47.011C13.0076 48.0056 13.2731 48.8984 13.7168 49.6386C9.87916 52.5206 5.88976 56.7295 7.20717 63.808C7.5113 65.4789 8.71398 66.9323 10.7913 68.1315C11.8929 68.7689 13.1975 69.1011 14.5528 69.1011H15.3255C15.4018 69.6747 15.4771 70.2493 15.5791 70.8229C12.7041 76.4092 10.399 85.4003 9.90463 90.6037C9.87891 90.9229 10.082 91.2162 10.399 91.28C10.6645 91.3439 10.9309 91.3948 11.1965 91.4456C10.9686 93.1036 10.7536 94.7994 10.5505 96.5602C8.59995 100.169 7.81529 105.437 7.21997 111.495C6.05495 112.145 4.90186 112.783 3.73674 113.42L1.22564 113.419C0.870988 113.419 0.592594 113.713 0.592594 114.057L0.591675 123.074C0.591675 123.431 0.870069 123.711 1.22472 123.711H122.786C123.128 123.711 123.419 123.431 123.419 123.074V114.057C123.42 113.713 123.129 113.419 122.786 113.419L122.786 113.418ZM7.05271 113.291C6.98932 113.329 6.93878 113.368 6.88825 113.418H6.35536C6.59607 113.291 6.83681 113.163 7.07752 113.023C7.06466 113.112 7.05271 113.202 7.05271 113.291L7.05271 113.291ZM92.0106 87.9999L97.6721 76.93H113.959L119.659 87.9999H92.0106ZM58.7895 99.9886C54.7239 102.641 50.5572 105.064 46.3528 107.322L48.5184 92.6675C51.9372 95.1035 55.3698 97.5395 58.7895 99.9886V99.9886ZM50.9239 67.6324L47.5684 90.4238C47.4039 90.3091 47.2395 90.1944 47.0869 90.0926C45.3265 88.8297 43.4522 87.6187 41.3748 87.899C39.4748 88.1414 37.9808 89.6078 36.6633 90.9086C36.6633 90.9086 33.8519 93.676 32.2687 94.9008C32.1805 93.6129 32.129 92.3499 32.0785 91.1C32.4589 90.9982 32.8512 90.9085 33.2306 90.7938C33.4842 90.717 33.6615 90.4875 33.6735 90.2322C33.9905 85.016 33.0405 79.7108 32.2677 75.4382C31.9765 73.7544 31.6852 72.1732 31.5327 70.8594C31.4822 68.9211 31.4564 66.8931 31.5832 64.9038C31.9122 64.394 32.1023 63.7945 32.0895 63.195L32.0766 61.7286C32.0766 61.6518 32.0389 61.6009 32.0132 61.537C32.1777 60.6822 32.3936 59.8532 32.6591 59.0371L35.7747 64.2026C36.4078 65.261 37.5223 65.9493 38.7506 66.052L48.0212 66.8172C48.2619 66.8172 48.4521 66.7154 48.566 66.5618C48.8848 66.7145 50.4936 67.4926 50.9235 67.6323L50.9239 67.6324ZM33.2692 45.7479C34.2698 46.3215 35.0168 47.2143 35.3466 48.3115L39.2478 60.848C39.3241 61.0775 39.5014 61.2431 39.7293 61.2819L48.0745 62.9519L47.5683 65.5028L38.8544 64.7756C38.0312 64.7118 37.2842 64.2399 36.8533 63.5386L33.0542 57.2509C32.9403 57.0465 32.7124 56.9317 32.4717 56.9447C32.231 56.9706 32.0288 57.1233 31.9268 57.3398C31.382 58.6785 31.0025 60.0562 30.7361 61.5225C30.1664 62.0582 29.6087 62.568 29.0014 63.0149C29.0648 61.5096 28.9132 59.8266 28.7478 58.092C28.5834 56.3193 28.4189 54.5086 28.4566 52.7481C29.888 52.1486 30.9006 50.5286 30.9006 48.5393C30.9006 47.9398 30.7996 47.3791 30.6351 46.8554C31.1157 46.3854 32.56 45.9774 33.2692 45.748V45.7479ZM24.809 92.3624C26.8863 92.1968 28.8995 91.8906 30.8372 91.4317C31.0274 92.8981 31.0274 96.2012 31.0274 96.227C31.0016 97.1448 30.8629 98.1014 30.6093 99.058C29.2164 104.121 28.3427 110.064 27.9999 116.722C26.8349 117.64 26.2772 117.296 25.7332 116.938C25.6827 116.912 25.6193 116.875 25.5431 116.837C24.9229 108.827 24.9477 102.349 25.6313 97.0558C25.6441 96.979 25.6441 96.9031 25.6313 96.8393C25.3023 95.2822 25.0368 93.8157 24.8089 92.3624L24.809 92.3624ZM26.9617 67.9787C27.8483 67.7742 28.7597 67.3662 29.672 66.7158C29.887 66.5631 30.0772 66.3846 30.2802 66.218C30.2297 67.5448 30.2297 68.8577 30.2545 70.1464C25.2516 69.2157 20.8186 69.2157 16.7539 70.1464C16.7034 69.8023 16.6528 69.4581 16.6023 69.1009H23.4794C24.9476 69.0112 26.0879 68.6291 26.9617 67.9787H26.9617ZM24.8972 48.5422C24.8972 47.0249 25.6827 45.7491 26.721 45.4179C26.7972 45.367 27.1013 45.3162 27.2787 45.3162C28.5705 45.3162 29.6345 46.7576 29.6345 48.5433C29.6345 50.303 28.5706 51.7315 27.2787 51.7315C25.9611 51.7306 24.8972 50.3021 24.8972 48.5423V48.5422ZM25.7838 40.1506C26.1513 39.3596 26.506 39.0922 26.8983 38.8119C27.2787 38.5315 27.6958 38.2123 27.987 37.4851C28.101 37.1918 27.9742 36.8606 27.6958 36.6941C26.7715 36.1714 26.607 35.8142 26.5813 35.6356C26.5556 35.4062 26.7586 35.074 27.1261 34.7178C28.7855 33.9777 29.7861 32.8045 30.0773 31.2364C31.0779 31.2364 31.914 31.1725 32.5847 31.0319C34.1934 36.6052 33.5981 38.365 33.0909 38.9008C32.9512 39.0535 32.5212 39.5003 31.1155 39.1432C30.951 39.0923 30.7609 39.1302 30.6212 39.22C30.4696 39.3218 30.3676 39.4753 30.3428 39.6409L29.9248 41.9752C28.4556 41.6051 27.0498 41.1203 25.7324 40.5338L25.7838 40.1506ZM24.9982 41.6171C26.3792 42.2416 27.8603 42.7652 29.4185 43.1732C27.6958 43.0844 26.1512 42.7652 24.8338 42.2036L24.9982 41.6171ZM24.0491 43.2361C24.5177 43.4526 25.012 43.6312 25.5311 43.7977L22.9852 43.4277L24.0491 43.2361ZM18.552 44.0781L21.7688 44.537C21.1228 45.353 20.7305 46.4114 20.68 47.6485C20.6423 48.8216 20.895 49.9948 21.3636 50.8876L18.1974 50.4287C17.6149 49.9569 17.0324 48.6561 17.0958 47.087C17.1206 46.2978 17.3613 44.8823 18.552 44.0783L18.552 44.0781ZM8.40764 63.3362C7.55867 58.3114 9.39533 54.4848 14.512 50.6341C14.7656 50.8635 15.044 51.0551 15.3353 51.1957C14.7656 53.3634 14.7022 55.7105 14.7151 58.1338C14.7151 58.4141 14.8924 58.6824 15.158 58.7462C15.4492 58.823 15.7533 58.6694 15.8673 58.4909C17.3364 56.3232 19.1602 53.6447 21.6299 52.2162L22.3898 52.318C20.0845 55.8383 18.6788 59.3958 18.1219 63.1714C18.0337 63.7839 17.5642 64.2299 16.9816 64.2558C13.1816 64.4963 10.5225 64.203 8.40752 63.3361L8.40764 63.3362ZM11.7126 97.0684C11.7631 96.9916 11.7888 96.9028 11.7888 96.826C11.9919 95.0663 12.2069 93.3574 12.4347 91.6994C14.5755 92.1074 16.7412 92.3628 18.9195 92.4646C18.3747 93.9948 17.8179 95.4872 17.2473 96.8768C17.0066 97.4384 16.6776 97.9991 16.1705 98.7004C13.6878 102.195 11.6996 108.061 10.0404 113.316C9.1538 114.004 8.72287 113.775 8.30575 113.507C8.92685 106.736 9.63615 100.831 11.7125 97.0684L11.7126 97.0684ZM12.8399 117.079C12.8399 117.079 8.52078 116.836 7.38142 116.492C7.39428 116.007 7.52107 115.101 7.65981 114.605C8.21752 114.962 9.28055 115.535 10.826 114.311C10.8636 114.362 11.0162 114.516 11.0538 114.541C11.9653 115.612 13.27 116.237 14.955 116.403C14.6509 117.066 13.6632 117.142 12.84 117.079L12.8399 117.079ZM11.7631 113.418C11.7374 113.393 11.5353 113.163 11.4342 113.099C11.7631 112.079 12.093 111.046 12.4476 110.013C16.8926 107.449 20.5788 105.154 23.8967 102.883C23.7828 106.046 23.8333 109.541 24.0483 113.418L11.7631 113.418ZM23.9729 101.29C20.7811 103.497 17.2859 105.715 13.0935 108.164C14.2971 104.797 15.6643 101.621 17.1967 99.4535C17.7664 98.6625 18.1339 98.025 18.4123 97.3746C19.0453 95.8443 19.6664 94.1994 20.2489 92.5026C20.5402 92.5155 22.7316 92.4896 23.5419 92.4517C23.7697 93.9311 24.0362 95.4235 24.3651 96.9917C24.1878 98.3572 24.061 99.7848 23.9728 101.29L23.9729 101.29ZM31.2423 121.249C31.2423 121.249 25.657 120.905 24.6188 120.509C24.6188 119.936 24.809 118.584 25.0111 117.997C25.024 117.997 25.0368 118.01 25.0488 118.022C25.6689 118.418 26.936 119.234 28.8738 117.665C29.9754 119.171 31.6852 120.025 33.927 120.203C33.6358 121.212 32.3191 121.326 31.2423 121.25L31.2423 121.249ZM44.1734 113.419H37.2834C39.7531 112.195 42.2358 110.945 44.7302 109.644L44.1734 113.419ZM34.4085 113.419H29.4947C29.9256 108.215 30.6983 103.509 31.8247 99.39C32.0902 98.4463 32.2299 97.4897 32.2804 96.559C34.1924 95.2202 37.5487 91.8146 37.5487 91.8146C38.7771 90.6026 40.056 89.3535 41.5381 89.1621C43.1469 88.9327 44.7299 89.9652 46.3507 91.1263C46.6796 91.3687 47.0224 91.5982 47.3513 91.8406L44.9578 108.076C41.4249 109.937 37.8914 111.71 34.4081 113.419L34.4085 113.419ZM101.763 113.419H45.4539L46.1127 108.891C51.3177 106.545 60.2851 100.524 60.3356 100.486C64.1733 97.9228 67.9092 95.1684 71.443 92.0948C71.443 92.0948 74.3306 89.123 76.3567 89.1619C78.3073 89.1878 80.1944 90.0168 82.1323 91.2537C84.805 92.9376 87.4641 94.6336 90.1368 96.3295L88.3001 100.27C88.2119 100.474 88.2238 100.704 88.3506 100.882C88.4646 101.074 88.6676 101.176 88.8826 101.176H97.7865C98.7999 101.826 101.763 103.701 101.763 103.701L101.763 113.419ZM101.763 102.196C101.763 102.196 100.611 101.456 100.167 101.176H101.763V102.196ZM108.64 113.419H103.029V101.176H108.64V113.419ZM109.906 113.419V108.879C112.288 110.384 114.681 111.901 117.075 113.419H109.906Z" fill="black"/>
<path d="M96.6937 12.4107C96.9472 12.4107 97.1999 12.3848 97.4287 12.3469C98.2896 13.4182 99.5943 14.0557 101 14.0557C102.266 14.0557 103.432 13.5709 104.293 12.691C105.838 13.6606 107.915 13.4312 109.207 12.1683C109.536 12.2321 109.942 12.2321 110.321 12.1174C111.043 13.0352 112.119 13.5709 113.285 13.5709C115.375 13.5709 117.073 11.8491 117.073 9.74528C117.073 7.64145 115.376 5.93151 113.285 5.93151C112.931 5.93151 112.576 5.98239 112.234 6.08417C111.665 4.51503 110.145 3.40562 108.422 3.40562C108.03 3.40562 107.65 3.45651 107.295 3.57123C107.118 1.56911 105.445 0 103.407 0C101.443 0 99.8225 1.47939 99.5561 3.48147C99.3659 3.5194 99.1757 3.57029 98.9983 3.63412C98.3019 3.2261 97.5035 3.02165 96.6683 3.02165C94.0975 3.02165 92.0074 5.12555 92.0074 7.71509C92.0331 10.3065 94.1234 12.4104 96.6942 12.4104L96.6937 12.4107ZM96.6937 4.29951C97.3772 4.29951 98.036 4.50397 98.5937 4.87314C98.771 5.00081 99.0118 5.01377 99.2019 4.92402C99.4932 4.79634 99.835 4.70752 100.215 4.66867C100.544 4.64277 100.798 4.24772 100.798 3.91648C100.798 2.45004 101.976 1.26399 103.407 1.26399C104.864 1.26399 106.041 2.45009 106.041 3.91648C106.041 4.108 106.029 4.26065 105.991 4.40129C105.928 4.65664 106.017 4.92402 106.232 5.07762C106.447 5.23028 106.726 5.24323 106.954 5.10352C107.397 4.82319 107.904 4.66961 108.436 4.66961C109.804 4.66961 110.994 5.69011 111.197 7.02886C111.222 7.23333 111.361 7.41189 111.551 7.51367C111.742 7.60249 111.957 7.60249 112.134 7.50072C112.476 7.3092 112.881 7.20742 113.299 7.20742C114.692 7.20742 115.819 8.34265 115.819 9.74528C115.819 11.1608 114.692 12.2962 113.299 12.2962C112.399 12.2962 111.576 11.8114 111.108 11.0083C110.93 10.702 110.55 10.6003 110.247 10.7788C109.93 10.9574 109.626 11.0083 109.259 10.8556C109.005 10.7539 108.714 10.8297 108.537 11.0342C107.574 12.1824 105.802 12.3609 104.598 11.3404C104.471 11.2257 104.294 11.1748 104.117 11.1998C103.939 11.2257 103.788 11.3145 103.686 11.4552C103.065 12.2971 102.077 12.7819 101.001 12.7819C99.8607 12.7819 98.8225 12.2203 98.2271 11.2896C98.1132 11.098 97.9101 10.9963 97.6951 10.9963C97.6317 10.9963 97.5812 11.0092 97.5178 11.0222C97.2771 11.099 96.9987 11.1239 96.6945 11.1239C94.8202 11.1239 93.3005 9.59367 93.3005 7.70618C93.2995 5.82988 94.8192 4.29956 96.6936 4.29956L96.6937 4.29951Z" fill="black"/>
<path d="M31.6345 17.1173C31.8752 17.1173 32.116 17.1043 32.3567 17.0664C33.2433 18.1507 34.548 18.7882 35.9537 18.7882C37.195 18.7882 38.3729 18.2904 39.2467 17.4235C40.7663 18.3672 42.8943 18.1377 44.1732 16.9008C44.5278 16.9646 44.933 16.9516 45.2748 16.8499C45.9969 17.7677 47.0729 18.2913 48.2389 18.2913C50.3282 18.2913 52.0263 16.5695 52.0263 14.4657C52.0263 12.0167 49.6328 10.0785 47.188 10.8057C46.6183 9.23653 45.0987 8.12712 43.3759 8.12712C42.9836 8.12712 42.6032 8.17801 42.2486 8.29273C42.0712 6.30356 40.399 4.74731 38.3603 4.74731C36.3592 4.74731 34.7127 6.27758 34.4977 8.22878C34.3204 8.26672 34.1302 8.3176 33.9529 8.38144C33.2564 7.97342 32.458 7.76897 31.6347 7.76897C29.0639 7.76897 26.9738 9.86083 26.9738 12.4366C26.9747 15.0123 29.0641 17.1172 31.6347 17.1172L31.6345 17.1173ZM31.6345 9.03094C32.3181 9.03094 32.9897 9.23541 33.5346 9.60457C33.7119 9.73224 33.9526 9.7452 34.1547 9.65545C34.4965 9.50279 34.8135 9.41306 35.1424 9.4001C35.4842 9.38715 35.7507 9.10681 35.7507 8.76264V8.63497C35.7507 7.18149 36.9285 6.00735 38.3601 6.00735C39.8164 6.00735 40.9942 7.19345 40.9942 8.63497C40.9942 8.83944 40.9813 8.97913 40.9437 9.11978C40.8674 9.37512 40.9694 9.64251 41.1844 9.80811C41.3994 9.96077 41.6787 9.97372 41.9065 9.83402C42.3494 9.55368 42.8566 9.40011 43.3886 9.40011C44.7566 9.40011 45.9465 10.4206 46.1494 11.7594C46.1752 11.9638 46.3011 12.1424 46.4912 12.2312C46.6686 12.32 46.8836 12.32 47.0738 12.2312C48.8342 11.3134 50.7847 12.6651 50.7847 14.4628C50.7847 15.8784 49.6573 17.0137 48.2644 17.0137C47.3649 17.0137 46.5417 16.5418 46.0731 15.7388C45.8958 15.4455 45.5154 15.3437 45.2122 15.5093C44.9209 15.6749 44.49 15.6879 44.2245 15.5861C43.9709 15.4843 43.6796 15.5602 43.5023 15.7647C42.5523 16.8869 40.7285 17.0525 39.5635 16.0709C39.4367 15.9562 39.2593 15.9053 39.082 15.9303C38.9047 15.9562 38.7531 16.045 38.6511 16.1727C38.0181 17.0146 37.0175 17.5114 35.9664 17.5114C34.8391 17.5114 33.8009 16.9498 33.1679 16.0061C33.054 15.8276 32.8509 15.7258 32.6488 15.7258C32.5983 15.7258 32.5477 15.7258 32.4972 15.7517C32.2436 15.8155 31.9652 15.8405 31.6611 15.8405C29.7867 15.8405 28.267 14.3102 28.267 12.4228C28.2404 10.5483 29.7601 9.03105 31.6343 9.03105L31.6345 9.03094Z" fill="black"/>
<path d="M67.0195 48.7582C68.3371 50.4929 70.376 51.5125 72.5672 51.5125C74.5554 51.5125 76.4427 50.6706 77.7472 49.2301C78.7349 49.9313 79.9257 50.3014 81.1669 50.3014C82.8134 50.3014 84.3717 49.6381 85.4981 48.4649C86.144 48.6305 86.9167 48.5796 87.5369 48.3631C88.5751 49.8296 90.2722 50.7224 92.096 50.7224C95.2245 50.7224 97.7575 48.1587 97.7575 45.0214C97.7575 41.8841 95.2116 39.3332 92.096 39.3332C91.4243 39.3332 90.7913 39.4479 90.184 39.6773C89.437 37.1016 87.106 35.303 84.3837 35.303C83.6367 35.303 82.9017 35.4436 82.2181 35.698C82.1804 32.4967 79.584 29.9082 76.3793 29.9082C73.3013 29.9082 70.7683 32.3312 70.566 35.3918C70.148 35.4556 69.7299 35.5833 69.3248 35.7359C68.236 35.0596 66.9689 34.7154 65.6515 34.7154C61.7889 34.7154 58.6347 37.8907 58.6347 41.7933C58.6733 46.1435 62.637 49.6259 67.0195 48.7581L67.0195 48.7582ZM65.6891 35.9794C66.867 35.9794 67.9944 36.3235 68.9444 36.974C69.1346 37.1016 69.3625 37.1266 69.5646 37.0248C70.1095 36.7695 70.692 36.6168 71.2745 36.5909C71.4775 36.578 71.6549 36.4892 71.7688 36.3235C71.8827 36.1579 71.9204 35.9535 71.857 35.762C71.857 33.2371 73.8958 31.1832 76.4041 31.1832C78.9244 31.1832 80.9761 33.2362 80.9761 35.762C80.9761 36.0682 80.9384 36.3744 80.875 36.6548C80.8116 36.9101 80.9127 37.1775 81.1286 37.3181C81.3436 37.4708 81.6229 37.4708 81.8379 37.3311C82.5849 36.8333 83.4715 36.5789 84.3958 36.5789C86.7773 36.5789 88.7655 38.3007 89.1322 40.6859C89.158 40.8904 89.2967 41.0689 89.4869 41.1577C89.6771 41.2466 89.8921 41.2466 90.0823 41.1318C90.6905 40.7877 91.3869 40.6091 92.1211 40.6091C94.5531 40.6091 96.5157 42.5863 96.5157 45.0214C96.5157 47.4704 94.5403 49.4467 92.1211 49.4467C90.5508 49.4467 89.1066 48.5918 88.3466 47.2272C88.2584 47.0745 88.1188 46.9718 87.9543 46.9209C87.7898 46.883 87.6125 46.908 87.46 46.9977C86.928 47.3289 86.1424 47.3807 85.5599 47.1383C85.3064 47.0366 85.0151 47.1124 84.8378 47.3169C83.9383 48.4012 82.5959 49.0257 81.1774 49.0257C80.0253 49.0257 78.9227 48.6177 78.0748 47.8655C77.948 47.7508 77.7706 47.6999 77.5933 47.7129C77.416 47.7258 77.2644 47.8276 77.1505 47.9682C76.0865 49.3967 74.3766 50.2387 72.5658 50.2387C70.6409 50.2387 68.8675 49.282 67.8166 47.6878C67.7027 47.5092 67.4996 47.4074 67.2846 47.4074C67.2341 47.4074 67.1836 47.4204 67.1202 47.4333C63.3843 48.415 59.939 45.4821 59.939 41.7961C59.9399 38.5811 62.5235 35.9792 65.6896 35.9792L65.6891 35.9794Z" fill="black"/>
<path d="M107.41 85.655H96.0113L99.1139 79.5848C99.2784 79.2656 99.1516 78.8835 98.8356 78.7299C98.5186 78.5643 98.1391 78.6919 97.9866 79.0102L94.4025 86.012C94.3014 86.2165 94.3142 86.4459 94.4282 86.6365C94.5421 86.828 94.7452 86.9427 94.973 86.9427H107.41C107.764 86.9427 108.043 86.6624 108.043 86.3053C108.043 85.9481 107.764 85.6549 107.41 85.6549L107.41 85.655Z" fill="black"/>
<path d="M85.2201 95.7542L83.6876 94.7726C82.5473 94.0454 81.4209 93.3312 80.2808 92.6169C78.8245 91.6861 77.5832 91.2393 76.3796 91.2263H76.3419C74.8599 91.2263 73.0746 93.0249 72.9093 93.1905C70.921 94.9123 68.7049 96.5952 66.1084 98.3299C65.8171 98.5215 65.7409 98.9165 65.9311 99.2098C66.0579 99.4013 66.26 99.4901 66.463 99.4901C66.5898 99.4901 66.7038 99.4522 66.8177 99.3884C69.4518 97.6286 71.7195 95.9197 73.7839 94.1213C74.4427 93.4449 75.6711 92.5013 76.3418 92.5013H76.3547C77.3047 92.5142 78.3429 92.8963 79.5971 93.7003C80.7373 94.4146 81.8637 95.1418 83.0038 95.856L84.5364 96.8377C84.8276 97.0292 85.2199 96.9394 85.4101 96.6332C85.6132 96.3408 85.5241 95.9449 85.22 95.7543L85.2201 95.7542Z" fill="black"/>
<path d="M41.8427 90.1692C40.8044 90.3098 39.9931 91.1129 39.2591 91.8271C39.2463 91.8401 37.4225 93.6895 36.422 94.378C36.1308 94.5825 36.0674 94.9775 36.2575 95.2708C36.3843 95.4494 36.5745 95.5382 36.7767 95.5382C36.9034 95.5382 37.0302 95.5003 37.1442 95.4235C38.2329 94.6583 40.0697 92.7958 40.1459 92.72C40.7284 92.1464 41.3744 91.508 42.0074 91.4322C42.6533 91.3434 43.426 91.8402 44.2235 92.4138C44.5148 92.6183 44.9071 92.5544 45.1102 92.2611C45.3132 91.9678 45.2498 91.5728 44.9586 91.3683C43.9451 90.6411 42.9446 90.0037 41.843 90.1693L41.8427 90.1692Z" fill="black"/>
<path d="M27.8853 106.187H27.9229C28.2519 106.187 28.5431 105.92 28.556 105.588C28.6571 103.56 28.8978 102.82 29.2524 101.698C29.3792 101.29 29.5308 100.831 29.6953 100.245C29.8221 99.7859 29.8855 99.327 29.8983 98.8802C29.9112 98.523 29.6328 98.2297 29.2782 98.2297H29.2653C28.9235 98.2297 28.6451 98.5101 28.6322 98.8542C28.6194 99.1984 28.5688 99.5555 28.4806 99.9127C28.329 100.474 28.1894 100.92 28.0626 101.315C27.6822 102.488 27.4167 103.33 27.3028 105.524C27.2651 105.869 27.5306 106.163 27.8853 106.187L27.8853 106.187Z" fill="black"/>
<path d="M14.7629 62.2518C12.7994 62.3795 11.3817 62.2647 10.2544 61.8687C9.84918 58.8333 10.8626 56.3721 13.2818 54.5607C13.5602 54.3442 13.6236 53.9482 13.4086 53.6679C13.1936 53.3876 12.8003 53.3237 12.5219 53.5402C9.59639 55.7339 8.4314 58.7306 9.06458 62.4425C9.10225 62.659 9.24191 62.8376 9.44496 62.9273C10.5089 63.3612 11.7502 63.5777 13.3582 63.5777C13.8139 63.5777 14.3082 63.5648 14.8402 63.5268C15.1948 63.5009 15.4603 63.1956 15.4355 62.8505C15.4089 62.5073 15.1176 62.2399 14.763 62.2519L14.7629 62.2518Z" fill="black"/>
<path d="M46.5139 13.7625C46.9825 13.7625 47.35 14.1455 47.35 14.6044C47.35 14.9615 47.6284 15.2419 47.9831 15.2419C48.3377 15.2419 48.6161 14.9615 48.6161 14.6044C48.6161 13.4313 47.6661 12.4875 46.5139 12.4875C46.1593 12.4875 45.8809 12.7679 45.8809 13.125C45.8809 13.4821 46.1593 13.7625 46.5139 13.7625Z" fill="black"/>
<path d="M30.3667 13.2657C30.7214 13.2657 30.9998 12.9854 30.9998 12.6283C30.9998 12.1305 31.405 11.7105 31.8993 11.7105C32.2539 11.7105 32.5323 11.4301 32.5323 11.073C32.5323 10.7159 32.2539 10.4355 31.8993 10.4355C30.7085 10.4355 29.7337 11.4172 29.7337 12.6292C29.7337 12.9845 30.0121 13.2657 30.3667 13.2657V13.2657Z" fill="black"/>
<path d="M112.843 9.55392C113.185 9.55392 113.463 9.83426 113.463 10.1784C113.463 10.5355 113.742 10.8159 114.096 10.8159C114.451 10.8159 114.729 10.5355 114.729 10.1784C114.729 9.13294 113.88 8.27808 112.842 8.27808C112.488 8.27808 112.209 8.55841 112.209 8.91554C112.21 9.27358 112.489 9.55392 112.843 9.55392V9.55392Z" fill="black"/>
<path d="M96.0751 8.26571C96.4297 8.26571 96.7081 7.98537 96.7081 7.62825C96.7081 7.25817 97.0122 6.95192 97.3798 6.95192C97.7344 6.95192 98.0128 6.67158 98.0128 6.31446C98.0128 5.95734 97.7344 5.677 97.3798 5.677C96.3158 5.677 95.442 6.55685 95.442 7.62825C95.4411 7.98537 95.7204 8.26571 96.0751 8.26571Z" fill="black"/>
<path d="M89.1717 43.7584C90.1465 43.7584 90.9321 44.5494 90.9321 45.5181C90.9321 45.8753 91.2105 46.1556 91.5651 46.1556C91.9198 46.1556 92.1981 45.8753 92.1981 45.5181C92.1981 43.8472 90.8429 42.4827 89.1708 42.4827C88.8161 42.4827 88.5377 42.763 88.5377 43.1201C88.5386 43.4772 88.817 43.7585 89.1717 43.7585L89.1717 43.7584Z" fill="black"/>
<path d="M75.5577 34.8432C76.4691 34.8432 77.2041 35.5195 77.2041 36.3485C77.2041 36.7056 77.4825 36.986 77.8372 36.986C78.1918 36.986 78.4702 36.6927 78.4702 36.3485C78.4702 34.8182 77.1655 33.5684 75.5576 33.5684C75.203 33.5684 74.9246 33.8487 74.9246 34.2058C74.9236 34.5629 75.203 34.8433 75.5576 34.8433L75.5577 34.8432Z" fill="black"/>
<path d="M62.9175 42.9412C63.2721 42.9412 63.5505 42.6608 63.5505 42.3037C63.5505 41.2702 64.3866 40.4163 65.412 40.4163C65.7666 40.4163 66.045 40.1359 66.045 39.7788C66.045 39.4217 65.7666 39.1414 65.412 39.1414C63.6893 39.1414 62.2834 40.5569 62.2834 42.3045C62.2844 42.6607 62.5756 42.941 62.9174 42.941L62.9175 42.9412Z" fill="black"/>
<path d="M72.4928 49.09C73.5311 49.09 74.494 48.6181 75.1143 47.7892C75.3293 47.5088 75.2659 47.1128 74.9875 46.8963C74.7091 46.6799 74.3158 46.7437 74.1008 47.024C73.3153 48.0575 71.5429 48.0186 70.8208 46.9223C70.6178 46.629 70.2383 46.5522 69.9471 46.7437C69.6558 46.9352 69.5796 47.3303 69.7698 47.6235C70.378 48.5413 71.3905 49.09 72.493 49.09L72.4928 49.09Z" fill="black"/>
</svg>
